<?xml version="1.0" standalone="no"?>
<!DOCTYPE svg PUBLIC "-//W3C//DTD SVG 1.1//EN" "http://www.w3.org/Graphics/SVG/1.1/DTD/svg11.dtd" >
<svg xmlns="http://www.w3.org/2000/svg" xmlns:xlink="http://www.w3.org/1999/xlink" version="1.1">
<metadata></metadata>
<defs>
<font id="blender_pro_bold_italicBdIt" horiz-adv-x="1062" >
<font-face units-per-em="2048" ascent="1638" descent="-410" />
<missing-glyph horiz-adv-x="481" />
<glyph horiz-adv-x="0" />
<glyph horiz-adv-x="682" />
<glyph unicode="&#xd;" horiz-adv-x="1024" />
<glyph unicode=" "  horiz-adv-x="481" />
<glyph unicode="&#x09;" horiz-adv-x="481" />
<glyph unicode="&#xa0;" horiz-adv-x="481" />
<glyph unicode="!" horiz-adv-x="544" d="M94 -6l47 242h250l-47 -242h-250zM176 332l174 893h205l-174 -893h-205z" />
<glyph unicode="&#x22;" horiz-adv-x="819" d="M307 885l51 166l52 260h200l-55 -287l-45 -139h-203zM612 885l52 166l51 260h200l-55 -287l-45 -139h-203z" />
<glyph unicode="#" horiz-adv-x="1093" d="M98 340l72 192h172l43 111h-172l72 195h172l71 186h205l-71 -186h83l72 186h205l-72 -186h172l-71 -195h-172l-43 -111h172l-72 -192h-172l-76 -195h-205l76 195h-84l-76 -195h-204l73 195h-170zM547 532h84l43 111h-84z" />
<glyph unicode="$" horiz-adv-x="1118" d="M106 223l201 64q31 -53 72 -90q4 -2 14 -2h121l66 333l-242 66q-72 21 -101.5 84.5t-15.5 138.5l23 115q12 68 53 117q27 30 87 79.5t93 67.5q76 37 135 37h109l27 137h118l-26 -137h75q131 0 226 -170q13 -24 28 -72l-202 -55q-35 63 -72 90q-2 2 -12 2h-84l-64 -326 l226 -61q70 -21 99 -85t15 -138l-24 -127q-12 -71 -56 -117q-24 -29 -84 -79t-94 -68q-76 -37 -133 -37h-90l-35 -174h-119l35 174h-117q-135 0 -227 170q-12 23 -25 63zM436 817q-3 -12 2.5 -22.5t12.5 -12.5l170 -47l59 293h-84l-12 -2q-27 -12 -76 -55.5t-51 -55.5z M633 195h67l13 2q26 12 75 54t50 54l24 117q3 13 -3.5 23t-14.5 12l-150 41z" />
<glyph unicode="%" horiz-adv-x="1712" d="M221 772l31 160l20 102q11 63 45 99q46 46 93 75q61 35 118 35h131q68 0 109 -35q14 -11 33.5 -35.5t27.5 -39.5q20 -39 9 -99l-52 -262q-11 -62 -45 -98q-50 -50 -92 -76q-61 -35 -119 -35h-131q-67 0 -108 35q-14 11 -34 36t-28 40q-19 37 -8 98zM350 -2l918 1227h233 l-915 -1227h-236zM391 768q10 -20 33 -35q4 -2 10 -2h107q8 0 12 2q30 17 63 55l5 11l47 229v10q-10 20 -33 35q-4 2 -10 2h-107q-8 0 -12 -2q-32 -18 -64 -55l-4 -10l-47 -230v-10zM1006 186l30 160l21 103q11 62 45 98q50 50 92 76q60 34 119 34h131q68 0 108 -34 q14 -11 34 -36t28 -40q19 -37 8 -98l-51 -263q-11 -62 -45 -98q-50 -50 -92 -76q-61 -35 -119 -35h-131q-68 0 -109 35q-14 11 -33 36t-28 40q-19 37 -8 98zM1176 182q10 -20 32 -35q4 -2 11 -2h106q8 0 12 2q12 7 33 25.5t31 30.5l4 10l47 229v11q-9 18 -33 34q-4 2 -10 2 h-106q-9 0 -13 -2q-30 -17 -63 -55l-4 -10l-47 -229v-11z" />
<glyph unicode="&#x26;" horiz-adv-x="1148" d="M143 272l29 158q11 57 39.5 95.5t77.5 78.5q2 2 4 2q-22 27 -39 53q-15 33 -17.5 60.5t5.5 66.5l32 162q16 71 62 125q22 24 65.5 61.5t67.5 51.5q70 45 154 45h172q138 0 231 -168q20 -37 33 -90l-201 -53l-4 12q-10 28 -33 54t-43 36q-8 4 -22 4h-156q-8 0 -12 -2 q-20 -10 -49.5 -34.5t-44.5 -43.5q-5 -4 -7 -14l-28 -144q-3 -19 -2 -22q8 -28 35 -51q6 -6 16 -6h227l-39 -203h-211q-14 0 -46.5 -25.5t-47.5 -48.5l-6 -16l-29 -154v-14q9 -23 22.5 -37t27.5 -14h276q14 0 53 32.5t60 57.5q4 4 6 14l55 285h266l-41 -209h-57l-20 -109 q-13 -71 -62 -123q-17 -20 -60.5 -56.5t-68.5 -51.5q-70 -45 -156 -45h-278q-83 0 -135 43q-19 15 -49 53.5t-39 58.5q-28 59 -13 125z" />
<glyph unicode="'" horiz-adv-x="475" d="M307 885l51 166l52 260h200l-55 -287l-45 -139h-203z" />
<glyph unicode="(" horiz-adv-x="706" d="M127 289l123 626q14 71 55 119q51 57 178 156q133 103 168 133l127 -160q-60 -42 -192 -150t-135 -128l-117 -611q-2 -10 15 -36t45 -60t54.5 -64.5t53.5 -60.5t33 -37l-164 -133q-3 3 -52 56.5t-75 83.5q-78 93 -107 149q-21 48 -10 117z" />
<glyph unicode=")" horiz-adv-x="724" d="M66 43q59 41 191.5 150t135.5 129l117 610q2 10 -15 36t-45 60t-54.5 64.5t-53.5 60.5t-33 37l164 133q7 -8 54.5 -58.5t72.5 -80.5q77 -91 107 -150q21 -47 10 -116l-123 -627q-14 -71 -55 -119q-48 -54 -179 -156q-118 -92 -167 -133z" />
<glyph unicode="*" horiz-adv-x="935" d="M266 967l58 172l217 -76l-4 233h178l-4 -231l223 78l53 -172l-219 -68l141 -186l-145 -105l-133 189l-133 -193l-146 107l137 184z" />
<glyph unicode="+" horiz-adv-x="1052" d="M182 401l37 193h287l55 289h207l-55 -289h286l-36 -193h-287l-55 -284h-207l55 284h-287z" />
<glyph unicode="," horiz-adv-x="555" d="M-41 -174l256 389l207 -65l-215 -324h-248z" />
<glyph unicode="-" horiz-adv-x="653" d="M129 401l37 193h455l-37 -193h-455z" />
<glyph unicode="." horiz-adv-x="546" d="M92 0l49 258h252l-49 -258h-252z" />
<glyph unicode="/" horiz-adv-x="905" d="M-4 0l819 1225h238l-817 -1225h-240z" />
<glyph unicode="0" d="M131 270l131 678q16 71 62 125q20 21 65.5 60t69.5 53q70 45 151 45h258q82 0 133 -45q20 -15 51 -53.5t40 -59.5q27 -55 14 -123l-129 -678q-16 -71 -62 -125q-19 -21 -65 -59t-70 -53q-70 -45 -151 -45h-260q-82 0 -133 45q-20 15 -51 53t-40 59q-27 55 -14 123z M344 250q9 -23 24.5 -39t28.5 -16h252q14 0 56 30t53 51q4 7 6 19l127 666v10q-9 24 -23.5 39.5t-27.5 15.5h-252q-14 0 -55.5 -30.5t-53.5 -51.5q-4 -8 -6 -18l-129 -666v-10z" />
<glyph unicode="1" d="M397 1018l41 207h459l-238 -1225h-217l199 1018h-244z" />
<glyph unicode="2" d="M113 0l67 352q14 73 67 130t130 93l448 211q30 13 35 37l25 135v15q-20 51 -49 51h-215q-5 0 -11 -2q-26 -12 -64.5 -43t-56.5 -64l-208 60q24 41 65 88q168 168 295 168h221q81 0 135 -45q19 -15 49 -54t39 -59q28 -59 13 -125l-25 -131q-14 -73 -68 -130t-126 -91 l-445 -209q-37 -18 -41 -43l-26 -139h573l-39 -205h-788z" />
<glyph unicode="3" d="M96 248l203 53l4 -12q10 -28 33 -54t43 -36q8 -4 22 -4h217q9 0 13 2q21 11 50 34.5t44 42.5q4 5 6 15l29 149q3 19 2 23q-8 28 -35 51q-6 6 -16 6h-271l39 203h252h2q14 0 46.5 25.5t47.5 48.5l7 16l28 147v15q-20 51 -49 51h-235q-5 0 -11 -2q-26 -12 -64.5 -43 t-56.5 -64l-208 60q24 41 65 88q168 168 295 168h242q81 0 135 -45q19 -15 49 -54t39 -59q28 -57 12 -125l-28 -153q-11 -57 -39.5 -95.5t-77.5 -78.5q-3 -3 -4 -3q22 -27 39 -53q15 -33 17.5 -60.5t-5.5 -66.5l-33 -166q-17 -72 -61 -125q-21 -23 -65 -60.5t-68 -51.5 q-70 -45 -154 -45h-234q-140 0 -233 168q-20 37 -33 90z" />
<glyph unicode="4" d="M76 244l35 184l671 797h248l-151 -776h125l-39 -205h-125l-47 -244h-215l47 244h-549zM367 449h297l90 464z" />
<glyph unicode="5" d="M119 248l200 53l5 -12q10 -28 32.5 -54t42.5 -36q8 -4 23 -4h205q8 0 12 2q21 11 50 34.5t44 42.5q4 5 6 15l37 194q3 19 2 23q-8 28 -35 51q-6 6 -16 6h-498l129 662h719l-41 -205h-504l-49 -252h271q85 0 137 -49q20 -15 49.5 -50.5t40.5 -56.5q25 -57 12 -127 l-41 -213q-17 -72 -61 -125q-21 -23 -65 -60.5t-68 -51.5q-70 -45 -154 -45h-221q-138 0 -231 168q-20 37 -33 90z" />
<glyph unicode="6" d="M135 270l133 678q13 70 62 125q18 22 63 60.5t70 52.5q70 45 149 45h219q139 0 232 -168q20 -37 33 -90l-201 -53l-4 12q-10 28 -33 54t-43 36q-8 4 -22 4h-207q-25 0 -97 -72q-7 -7 -10 -20l-39 -207q84 64 129 64h201q80 0 135 -43q19 -15 50 -53t40 -58 q26 -54 13 -125l-45 -240q-16 -71 -62 -125q-19 -21 -65 -59t-70 -53q-70 -45 -152 -45h-241q-82 0 -133 45q-20 15 -50.5 53t-39.5 59q-27 56 -15 123zM350 250q9 -24 23.5 -39.5t27.5 -15.5h236q14 0 55 30t53 51q5 11 7 19l41 215q4 21 2 27q-8 23 -25 38t-29 15h-198 q-30 0 -39 -6q-84 -57 -109 -92l-45 -232v-10z" />
<glyph unicode="7" d="M188 0l699 1020h-604l41 205h850l-33 -168l-709 -1057h-244z" />
<glyph unicode="8" d="M131 272l31 162q11 50 28.5 81t61.5 75l31 26q-34 39 -47.5 78t-2.5 97l31 159q13 70 62 125q18 21 63.5 59.5t69.5 53.5q70 45 153 45h238q80 0 131 -45q19 -14 50 -52.5t42 -60.5q25 -57 12 -125l-30 -159q-11 -53 -37 -90t-68 -74q-2 -2 -6 -5.5t-6 -5.5l20 -28 q43 -61 25 -154l-31 -162q-13 -72 -61 -125q-17 -20 -62.5 -58.5t-70.5 -53.5q-70 -45 -154 -45h-237q-80 0 -131 45q-19 14 -50.5 52.5t-42.5 59.5q-25 57 -12 125zM344 250q11 -23 26.5 -39t28.5 -16h234q14 0 46 24.5t52 48.5q6 7 8 19l31 155v15q-7 22 -23.5 38.5 t-27.5 16.5h-250q-13 0 -42.5 -25t-47.5 -49q-2 -2 -4 -10q0 -3 -5.5 -33.5t-14 -74.5t-11.5 -58v-12zM446 768q7 -22 24 -38.5t28 -16.5h250q13 0 42.5 24.5t47.5 48.5q2 3 4 11q0 3 30 164v12q-11 23 -26.5 39t-28.5 16h-233q-14 0 -46.5 -25t-52.5 -49q-6 -6 -8 -18 l-31 -154v-14z" />
<glyph unicode="9" d="M127 248l201 53l4 -12q10 -28 33 -54t43 -36q8 -4 22 -4h207q25 0 96 71q6 6 10 21l39 207q-84 -64 -129 -64h-200q-81 0 -136 43q-19 15 -50 53t-40 58q-26 52 -12 125l45 239q16 71 62 125q20 21 65.5 60t69.5 53q70 45 151 45h242q82 0 133 -45q20 -15 50.5 -53.5 t39.5 -59.5q27 -55 14 -123l-133 -678q-13 -72 -61 -125q-18 -21 -63 -59.5t-70 -52.5q-70 -45 -150 -45h-219q-138 0 -231 168q-20 37 -33 90zM428 684q8 -23 24.5 -38t28.5 -15h199q30 0 39 6q83 57 108 92l45 232v10q-9 24 -23.5 39.5t-27.5 15.5h-235q-14 0 -55.5 -30.5 t-53.5 -51.5q-4 -8 -6 -18l-41 -215q-4 -21 -2 -27z" />
<glyph unicode=":" horiz-adv-x="546" d="M92 0l49 258h252l-49 -258h-252zM184 510l49 258h252l-49 -258h-252z" />
<glyph unicode=";" horiz-adv-x="552" d="M-41 -174l256 389l207 -65l-215 -324h-248zM197 508l49 258h252l-49 -258h-252z" />
<glyph unicode="&#x3c;" horiz-adv-x="1478" d="M90 608l725 611h287l-588 -510h907l-39 -199h-950l408 -508h-256z" />
<glyph unicode="=" horiz-adv-x="995" d="M111 272l36 189h764l-37 -189h-763zM172 580l37 190h764l-37 -190h-764z" />
<glyph unicode="&#x3e;" horiz-adv-x="1478" d="M156 512l39 199h950l-408 508h256l494 -607l-725 -610h-287l588 510h-907z" />
<glyph unicode="?" horiz-adv-x="950" d="M236 977q23 39 63 86q150 168 293 168h237q83 0 136 -47q19 -15 49 -52t41 -57q25 -57 12 -125l-29 -141q-13 -72 -66.5 -129.5t-123.5 -89.5q-6 -3 -31 -13t-46.5 -19.5t-46 -22.5t-40.5 -26.5t-18 -25.5l-29 -151h-215l31 160q7 33 20.5 62t28.5 50.5t39.5 42t43.5 34 t50.5 29.5t51 24.5t54.5 23.5t52 22q28 12 34 41l25 135q4 14 0 21q-24 49 -49 49h-232q-9 0 -18 -6q-61 -36 -104 -92l-11 -15zM346 0l45 240h248l-45 -240h-248z" />
<glyph unicode="@" horiz-adv-x="1312" d="M63 -39l189 971q14 68 55 117q26 29 85.5 79t92.5 68q68 37 136 37h440q65 0 119 -37q26 -17 63.5 -65t56.5 -82q25 -51 11 -117l-146 -750l-12 -182h-205l-2 45q-82 -55 -143 -55h-86q-88 0 -139 45q-20 17 -45.5 49t-34.5 51q-26 56 -13 127l68 348q17 78 61 127 q71 71 119 101q70 43 156 43h86q54 0 112 -47l21 106q0 6 -2 12q-8 26 -28.5 49.5t-39.5 34.5q-4 2 -10 2h-426q-8 0 -10 -2q-45 -22 -129 -106q-7 -7 -10 -19l-185 -952q-3 -11 0 -20q7 -23 30 -48.5t38 -33.5q4 -2 10 -2h121v-195h-154q-64 0 -118 37q-27 18 -67.5 68 t-53.5 79q-25 51 -11 117zM690 244q12 -39 43 -60q8 -4 12 -4h86q16 0 67.5 36t80.5 63l63 333q-16 25 -47 51.5t-49 26.5h-80q-10 0 -22 -8q-50 -32 -80 -74q-4 -6 -8 -16l-66 -336v-12z" />
<glyph unicode="A" horiz-adv-x="1124" d="M-49 0l665 1225h250l189 -1225h-217l-41 260h-465l-139 -260h-242zM440 465h330l-72 483z" />
<glyph unicode="B" horiz-adv-x="1136" d="M90 0l238 1225h575q80 0 137 -47q18 -14 47.5 -52t40.5 -59q16 -35 16 -77q0 -24 -5 -50l-31 -152q-14 -64 -49.5 -109t-77.5 -69l19.5 -24t16.5 -23t14.5 -27t9 -28.5t4 -34.5t-4.5 -39l-30 -155q-13 -70 -60 -123q-18 -21 -61.5 -58.5t-67.5 -52.5q-73 -45 -155 -45 h-576zM346 205h346q14 0 50 28.5t51 51.5q4 6 6 14l28 147v15q-7 23 -22.5 37t-26.5 14h-372zM444 711h349q13 0 48 28.5t50 51.5q4 4 6 14l29 143q3 11 0 19q-7 23 -22.5 38t-26.5 15h-373z" />
<glyph unicode="C" horiz-adv-x="1132" d="M145 289l125 645q13 64 56 115q26 29 85.5 79t92.5 68q76 37 135 37h256q130 0 225 -170q16 -30 31 -72l-205 -57q-47 74 -74 92q-2 2 -8 2h-246l-8 -2q-22 -11 -62.5 -44.5t-60.5 -57.5q-4 -4 -8 -25l-123 -623q-3 -16 19 -41t43 -38q2 -2 14 -2h242q6 0 10 2 q21 9 48.5 33.5t45.5 44.5l17 20l209 -57q-25 -40 -58 -78q-161 -170 -293 -170h-256q-67 0 -121 37q-28 18 -67.5 67t-52.5 78q-16 33 -16 72q0 21 5 45z" />
<glyph unicode="D" horiz-adv-x="1153" d="M90 0l238 1225h561q73 0 117 -35q28 -19 66 -69t52 -81q16 -30 16 -69q0 -22 -5 -47l-121 -627q-16 -72 -53 -117q-26 -29 -86 -77t-95 -66q-76 -37 -129 -37h-561zM344 205h313q9 0 21 6q29 14 74.5 50.5t48.5 53.5l119 607q4 14 -2 28q-16 40 -54 66q-6 4 -20 4h-342z " />
<glyph unicode="E" horiz-adv-x="1056" d="M90 0l238 1225h770l-41 -205h-553l-60 -309h514l-38 -205h-514l-60 -301h553l-39 -205h-770z" />
<glyph unicode="F" horiz-adv-x="1011" d="M90 0l238 1225h768l-41 -205h-549l-60 -309h512l-38 -205h-512l-99 -506h-219z" />
<glyph unicode="G" horiz-adv-x="1224" d="M145 289l125 645q13 64 56 115q26 29 85.5 79t92.5 68q76 37 135 37h285q130 0 225 -170q16 -30 31 -72l-205 -57q-47 74 -74 92q-2 2 -8 2h-275l-8 -2q-22 -11 -62.5 -44.5t-60.5 -57.5q-4 -4 -8 -25l-123 -623q-3 -16 19 -41t43 -38q2 -2 14 -2h285l10 2 q28 14 74.5 52.5t50.5 55.5l37 191h-264l39 204h479l-80 -413q-12 -135 -16 -287h-211l-2 49q-1 -1 -15 -9.5t-19 -11.5t-18.5 -10.5t-22 -11t-20.5 -8t-22.5 -6.5t-20.5 -2h-299q-67 0 -121 37q-28 18 -67.5 67t-52.5 78q-16 33 -16 72q0 21 5 45z" />
<glyph unicode="H" horiz-adv-x="1171" d="M90 0l238 1225h217l-103 -514h445l102 514h215l-237 -1225h-217l100 506h-444l-101 -506h-215z" />
<glyph unicode="I" horiz-adv-x="509" d="M90 0l238 1225h215l-234 -1225h-219z" />
<glyph unicode="J" horiz-adv-x="966" d="M39 238l203 51q8 -32 27 -57t38 -35l2 -1q2 0 4.5 -0.5t4 -0.5h4h2.5h135q10 -1 73.5 51t65.5 61l180 918h215l-182 -936q-13 -65 -57 -117q-26 -30 -83.5 -79t-90.5 -66q-72 -37 -134 -37h-151q-135 0 -229 170q-10 13 -27 78z" />
<glyph unicode="K" horiz-adv-x="1103" d="M90 0l238 1225h215l-101 -510h21q87 84 252.5 255.5t251.5 254.5h264l-608 -619q67 -104 217.5 -321.5t195.5 -284.5h-243l-347 512h-43l-98 -512h-215z" />
<glyph unicode="L" horiz-adv-x="983" d="M90 0l238 1225h217l-199 -1020h541l-39 -205h-758z" />
<glyph unicode="M" horiz-adv-x="1353" d="M90 0l238 1225h231l168 -604l401 604h258l-237 -1225h-215l162 838l-348 -537h-142l-139 535l-162 -836h-215z" />
<glyph unicode="N" horiz-adv-x="1161" d="M90 0l238 1225h231l258 -826l162 826h215l-238 -1225h-227l-264 815l-160 -815h-215z" />
<glyph unicode="O" horiz-adv-x="1206" d="M145 289l125 645q13 64 56 115q26 29 85.5 79t92.5 68q76 37 135 37h309q67 0 121 -37q28 -18 68 -67t53 -78q15 -31 15 -69q0 -22 -5 -48l-125 -645q-13 -65 -55 -115q-26 -29 -85.5 -79t-92.5 -68q-76 -37 -135 -37h-310q-67 0 -121 37q-28 18 -67.5 67t-52.5 78 q-16 33 -16 72q0 21 5 45zM356 276q-3 -16 19 -41t43 -38q2 -2 14 -2h295l8 2q22 11 62.5 44.5t60.5 57.5q4 4 8 25l123 622q3 16 -19 42t-42 38q-2 2 -15 2h-295l-8 -2q-22 -11 -62.5 -44.5t-60.5 -57.5q-4 -4 -8 -25z" />
<glyph unicode="P" horiz-adv-x="1099" d="M90 0l238 1225h575q81 0 135 -45q19 -14 48.5 -52.5t41.5 -60.5q17 -40 17 -83q0 -21 -4 -42l-35 -180q-12 -65 -62 -125q-20 -21 -63.5 -58t-67.5 -51q-71 -45 -155 -45h-359l-92 -483h-217zM440 688h340q14 0 52 26.5t53 47.5q8 10 10 18l37 178q2 9 0 15q-6 17 -19 31 t-24 16h-10h-375z" />
<glyph unicode="Q" horiz-adv-x="1214" d="M145 289l125 645q13 64 56 115q26 29 85.5 79t92.5 68q76 37 135 37h309q67 0 121 -37q28 -18 68 -67t53 -78q15 -31 15 -69q0 -23 -5 -48l-125 -645q-13 -65 -55 -115q-26 -29 -85.5 -79t-92.5 -68q-49 -23 -88 -31l41 -184h-220l-38 178h-140q-67 0 -121 37 q-28 18 -67.5 67t-52.5 78q-16 33 -16 72q0 21 5 45zM356 276q-3 -16 19 -41t43 -38q2 -2 14 -2h62l-7 30l201 62l21 -92h18l8 2q22 11 62.5 44.5t60.5 57.5q4 4 8 25l123 622q3 16 -19 42t-42 38q-2 2 -15 2h-295l-8 -2q-22 -11 -62.5 -44.5t-60.5 -57.5q-4 -4 -8 -25z" />
<glyph unicode="R" horiz-adv-x="1185" d="M90 0l238 1225h575q81 0 135 -45q19 -14 48.5 -52.5t41.5 -60.5q17 -40 17 -83q0 -21 -4 -42l-35 -180q-12 -65 -62 -125q-20 -21 -63.5 -58t-67.5 -51q-33 -21 -77 -34l186 -494h-225l-176 483h-222l-92 -483h-217zM440 688h340q14 0 52 26.5t53 47.5q8 10 10 18l37 178 q2 9 0 15q-6 17 -19 31t-24 16h-385z" />
<glyph unicode="S" horiz-adv-x="1169" d="M106 223l201 64q31 -53 72 -90q4 -2 14 -2h307l13 2q26 12 75 54t50 54l24 117q3 13 -3.5 23t-14.5 12l-506 137q-72 20 -102 84q-20 43 -20 92q0 23 5 47l23 115q12 68 53 117q27 30 87 79.5t93 67.5q76 37 135 37h303q131 0 226 -170q13 -24 28 -72l-202 -55 q-35 63 -72 90q-2 2 -12 2h-287l-12 -2q-27 -12 -76 -55.5t-51 -55.5l-21 -98q-3 -12 2.5 -22.5t12.5 -12.5l510 -141q70 -21 99 -85q20 -43 20 -91q0 -23 -5 -47l-24 -127q-12 -71 -56 -117q-24 -29 -84 -79t-94 -68q-76 -37 -133 -37h-326q-135 0 -227 170q-12 23 -25 63z " />
<glyph unicode="T" horiz-adv-x="1032" d="M221 1020l41 205h879l-41 -205h-330l-197 -1020h-217l197 1020h-332z" />
<glyph unicode="U" horiz-adv-x="1136" d="M127 289l182 936h215l-186 -949q-3 -16 19 -41.5t42 -37.5q2 -2 15 -2h241l9 2q22 11 62 44t60 58q5 5 9 25l176 901h215l-182 -936q-13 -64 -56 -115q-26 -29 -85.5 -79t-92.5 -68q-76 -37 -135 -37h-256q-67 0 -121 37q-28 18 -68 67t-53 78q-15 31 -15 69q0 23 5 48z " />
<glyph unicode="V" horiz-adv-x="1071" d="M186 1225h220l116 -949l488 949h237l-643 -1225h-252z" />
<glyph unicode="W" horiz-adv-x="1511" d="M225 1225h211l17 -860l370 860h230l34 -860l353 860h233l-520 -1225h-244l-39 821l-356 -821h-246z" />
<glyph unicode="X" horiz-adv-x="1089" d="M-18 0l512 639l-252 586h225l174 -410l324 410h256l-490 -611l266 -614h-227l-186 436l-346 -436h-256z" />
<glyph unicode="Y" horiz-adv-x="1064" d="M203 1225h223l182 -465l363 465h254l-541 -690l-102 -535h-215l102 535z" />
<glyph unicode="Z" horiz-adv-x="1005" d="M59 0l33 174l696 846h-532l41 205h807l-35 -178l-688 -842h524l-39 -205h-807z" />
<glyph unicode="[" horiz-adv-x="663" d="M90 0l238 1225h403l-39 -195h-188l-162 -835h188l-36 -195h-404z" />
<glyph unicode="\" horiz-adv-x="892" d="M209 1229h223l426 -1229h-227z" />
<glyph unicode="]" horiz-adv-x="673" d="M66 0l36 195h189l162 835h-189l39 195h404l-238 -1225h-403z" />
<glyph unicode="^" horiz-adv-x="706" d="M90 575l350 654h197l104 -654h-188l-53 394l-203 -394h-207z" />
<glyph unicode="_" horiz-adv-x="946" d="M23 -193l38 193h797l-39 -193h-796z" />
<glyph unicode="`" horiz-adv-x="780" d="M440 1298h222l141 -247l-180 -52z" />
<glyph unicode="a" horiz-adv-x="980" d="M84 256l6 37q16 74 62 125q35 40 114 92q73 45 156 45h283l16 84q2 8 0 10q-4 10 -18 25.5t-23 21.5q-8 4 -12 4h-189q-29 0 -94 -65l-188 59q21 34 75.5 83t87.5 69q78 49 156 49h176q88 0 142 -45q21 -17 45.5 -47t33.5 -49q16 -32 16 -75q0 -24 -5 -52l-86 -447 l-4 -180h-203l-15 45q-84 -55 -135 -55h-168q-85 0 -139 45q-19 17 -44 47.5t-34 48.5q-17 31 -17 75q0 23 5 50zM287 244q0 -4 2 -8q13 -29 37 -48q4 -4 12 -4h168q16 0 70 33.5t73 50.5l21 105h-275q-8 0 -16 -4q-44 -25 -82 -72q-2 -4 -2 -6z" />
<glyph unicode="b" horiz-adv-x="1003" d="M70 0l51 182l203 1043h204l-73 -377q73 47 129 47h149q87 0 141 -45q20 -17 45.5 -48t34.5 -50q16 -32 16 -73q0 -24 -5 -52l-72 -369q-15 -79 -59 -125q-15 -18 -52.5 -50t-64.5 -50q-70 -43 -158 -43h-149q-64 0 -123 55l-15 -45h-202zM342 266q16 -25 49 -53.5 t49 -28.5h146q4 0 12 4q19 9 52.5 34t37.5 36l72 377v14q-5 11 -17.5 27t-21.5 22q-4 2 -10 2h-158q-18 0 -68 -32t-77 -58z" />
<glyph unicode="c" horiz-adv-x="960" d="M121 258l72 369q15 76 61 125q14 18 51.5 49t65.5 49q73 45 157 45h189q73 0 139 -51q25 -21 60 -70t42 -82l-190 -55l-4 8q-11 16 -32 35.5t-34 19.5h-190q-11 0 -19 -4q-63 -31 -88 -69l-6 -17l-71 -366q0 -7 2 -13q11 -24 39 -43q8 -4 12 -4h207q13 0 42 20.5t44 35.5 l8 8l188 -60q-20 -34 -73 -82.5t-86 -68.5q-78 -47 -156 -47h-197q-89 0 -141 43q-20 17 -45.5 49t-34.5 51q-17 33 -17 76q0 23 5 49z" />
<glyph unicode="d" horiz-adv-x="1013" d="M121 262l72 363q14 77 61 127q17 19 54 51.5t63 48.5q70 43 155 43h148q46 0 112 -53l74 383h205l-203 -1043l-14 -182h-201l-4 45q-82 -55 -143 -55h-148q-88 0 -139 45q-20 17 -45.5 49t-34.5 51q-16 36 -16 79q0 23 4 48zM326 240q6 -20 39 -52q4 -4 12 -4h143 q16 0 73 38.5t85 64.5l63 336q-16 24 -49 50.5t-51 26.5h-139q-11 0 -13 -2q-21 -11 -49 -34t-43 -41q-2 -5 -4 -11l-67 -360v-12z" />
<glyph unicode="e" horiz-adv-x="985" d="M117 258l71 369q13 71 64 125q15 17 53 49t64 49q73 45 157 45h189q87 0 141 -45q20 -17 45.5 -48t34.5 -50q17 -33 17 -76q0 -23 -5 -49l-55 -283h-555l-19 -96v-10q8 -22 27 -38t31 -16h203q13 0 43.5 21t44.5 35l8 8l184 -60q-20 -33 -73.5 -81.5t-86.5 -69.5 q-78 -47 -155 -47h-193q-89 0 -141 43q-19 17 -45 48.5t-35 49.5q-19 34 -19 79q0 23 5 48zM373 526h350l22 111q2 10 0 12q-4 10 -18.5 26.5t-24.5 22.5q-4 2 -12 2h-192q-15 0 -49.5 -24.5t-53.5 -48.5l-4 -13z" />
<glyph unicode="f" horiz-adv-x="696" d="M147 690l37 195h138l16 78q15 78 61 127q16 18 53.5 50t63.5 48q73 45 160 45h192l-39 -193h-178q-14 0 -22 -4q-23 -12 -52 -35t-34 -40q-4 -11 -17 -76h224l-37 -195h-224l-133 -690h-204l133 690h-138z" />
<glyph unicode="g" horiz-adv-x="1019" d="M72 -145l188 55l4 -8q11 -15 32 -34.5t34 -19.5h184q10 0 21 7q18 11 46 32t35 31q6 8 9 19l18 104q-80 -51 -129 -51h-162q-87 0 -139 43q-20 17 -46.5 49t-35.5 51q-16 31 -16 72q0 25 6 53l72 369q15 79 59 125q14 18 52 48.5t67 49.5q73 45 155 45h162q66 0 125 -55 l16 45h201l-53 -185l-150 -774q-20 -86 -61 -129q-14 -18 -51.5 -49t-65.5 -49q-73 -45 -157 -45h-181q-75 0 -139 49q-25 20 -59 69t-41 83zM322 233q-3 -8 11 -23t29 -24q5 -2 13 -2h162q10 0 14 2q59 26 141 103l64 327q-62 84 -99 84h-157q-7 0 -11 -2q-22 -10 -49 -33 t-41 -42l-6 -13z" />
<glyph unicode="h" horiz-adv-x="993" d="M68 0l237 1225h205l-72 -377q70 47 121 47h152q87 0 141 -45q20 -17 45.5 -48t34.5 -50q17 -33 17 -76q0 -23 -5 -49l-121 -627h-205l123 639v12q-8 23 -39 47q-2 2 -16 2h-147q-45 0 -150 -92l-117 -608h-204z" />
<glyph unicode="i" horiz-adv-x="460" d="M90 0l170 885h205l-170 -885h-205zM270 1010l43 219h219l-43 -219h-219z" />
<glyph unicode="j" horiz-adv-x="475" d="M-193 -338l39 191h152l12 2q23 13 51.5 35t42.5 42q5 7 7 15l182 938h205l-185 -951q-14 -76 -61 -129q-16 -18 -54.5 -51t-64.5 -49q-70 -43 -153 -43h-173zM305 1010l43 219h219l-43 -219h-219z" />
<glyph unicode="k" horiz-adv-x="927" d="M74 0l237 1225h205l-131 -670h14q57 52 176 166t175 164h274l-463 -428l340 -457h-252l-258 362h-43l-69 -362h-205z" />
<glyph unicode="l" horiz-adv-x="471" d="M111 0v152l208 1073h205l-205 -1051l-2 -174h-206z" />
<glyph unicode="m" horiz-adv-x="1466" d="M86 0l135 702l10 183h201l6 -47q91 57 140 57h106q87 0 141 -45q31 -31 45 -49q34 30 94 62t109 32h111q87 0 141 -45q20 -17 45.5 -48t34.5 -50q17 -33 17 -76q0 -23 -5 -49l-121 -627h-204l122 639v12q-9 24 -38 47q-2 2 -17 2h-106q-46 0 -138 -82l-118 -618h-205 l123 639v12q-8 23 -39 47q-2 2 -17 2h-102q-44 0 -149 -92l-117 -608h-205z" />
<glyph unicode="n" horiz-adv-x="1013" d="M88 0l135 702l10 183h201l6 -47q91 57 140 57h151q87 0 141 -45q20 -17 45.5 -48t34.5 -50q18 -35 18 -78q0 -22 -5 -47l-121 -627h-205l123 639v12q-8 23 -39 47q-2 2 -16 2h-148q-44 0 -149 -92l-117 -608h-205z" />
<glyph unicode="o" horiz-adv-x="991" d="M121 258l72 369q15 79 59 125q14 18 52 48.5t67 49.5q73 45 155 45h193q87 0 141 -45q20 -17 45.5 -48t34.5 -50q16 -31 16 -72q0 -25 -6 -53l-71 -369q-15 -78 -60 -125q-15 -18 -52.5 -50t-64.5 -50q-70 -43 -157 -43h-193q-87 0 -139 43q-20 17 -46.5 49t-35.5 51 q-16 31 -16 72q0 25 6 53zM322 233q-3 -8 11 -23t29 -24q5 -2 13 -2h196q5 0 13 4q19 9 52.5 34t37.5 36l71 377v14q-5 11 -17 27t-21 22q-4 2 -11 2h-196q-7 0 -11 -2q-22 -10 -49 -33t-41 -42l-6 -13z" />
<glyph unicode="p" horiz-adv-x="1005" d="M20 -334l201 1036l17 183h202v-45q82 55 144 55h149q87 0 141 -45q20 -17 45.5 -48t34.5 -50q16 -32 16 -73q0 -25 -5 -52l-72 -369q-15 -79 -59 -125q-15 -18 -52.5 -50t-64.5 -50q-70 -43 -158 -43h-149q-55 0 -113 47l-72 -371h-205zM342 258q16 -25 46 -49.5 t48 -24.5h150q4 0 12 4q19 9 52.5 34t37.5 36l72 377v14q-5 11 -17.5 27t-21.5 22q-4 2 -10 2h-158q-16 0 -67 -33t-78 -59z" />
<glyph unicode="q" horiz-adv-x="1017" d="M121 258l72 369q15 79 59 125q14 18 52 48.5t67 49.5q73 45 155 45h150q64 0 123 -55l18 45h201l-53 -183l-201 -1036h-205l72 371q-73 -47 -129 -47h-150q-87 0 -139 43q-20 17 -46.5 49t-35.5 51q-16 31 -16 72q0 25 6 53zM322 233q-3 -8 11 -23t29 -24q5 -2 13 -2h145 q18 0 75.5 36.5t84.5 62.5l65 340q-16 24 -47.5 50.5t-48.5 26.5h-149q-7 0 -11 -2q-22 -10 -49 -33t-41 -42l-6 -13z" />
<glyph unicode="r" horiz-adv-x="851" d="M84 0l135 702l12 183h201l6 -49q90 59 142 59h122q74 0 140 -51q25 -21 60 -70t42 -82l-192 -55l-4 8q-40 55 -59 55h-1h-131q-31 0 -73.5 -29.5t-75.5 -62.5l-119 -608h-205z" />
<glyph unicode="s" horiz-adv-x="960" d="M78 190l184 56l4 -8q8 -16 29 -34.5t35 -19.5h233q19 0 58 31.5t43 52.5l8 41q5 27 -23 29q-31 3 -148 14.5t-179 16.5q-84 7 -128 61q-30 38 -30 94q0 25 6 54l10 55q13 72 60 125q124 137 264 137h196q36 0 75.5 -13.5t64.5 -33.5t60.5 -69t43.5 -83l-190 -53l-4 8 q-7 15 -24.5 32t-31.5 17h-213q-18 0 -26 -4q-10 -4 -33.5 -23t-34.5 -34q-2 -5 -6 -21l-6 -40q-2 -6 4.5 -16t19.5 -11q111 -13 314 -35q88 -10 134 -64q33 -38 33 -97q0 -24 -6 -52l-8 -49q-16 -72 -63 -125q-54 -58 -111 -94q-73 -45 -153 -45h-222q-75 0 -139 49 q-25 20 -59 68.5t-41 82.5z" />
<glyph unicode="t" horiz-adv-x="716" d="M133 690l37 195h137l68 340h205l-68 -340h254l-37 -195h-254l-78 -407q-2 -11 0 -17q7 -21 30.5 -46t43.5 -25h139l-37 -195h-151q-87 0 -139 43q-20 16 -45 48t-35 52q-19 41 -19 87q0 20 4 42l82 418h-137z" />
<glyph unicode="u" horiz-adv-x="999" d="M113 260l120 625h205l-121 -635q-2 -11 0 -17q14 -29 39 -45q4 -2 13 -2h161q14 0 63 29.5t75 52.5l118 617h205l-135 -703l-8 -182h-201l-8 51q-90 -59 -139 -59h-154q-89 0 -141 43q-20 17 -45.5 49t-34.5 51q-17 33 -17 76q0 23 5 49z" />
<glyph unicode="v" horiz-adv-x="894" d="M154 885h208l82 -596l312 596h227l-473 -885h-217z" />
<glyph unicode="w" horiz-adv-x="1351" d="M154 885h208l54 -572l272 572h215l47 -572l279 572h223l-444 -885h-209l-60 555l-276 -555h-209z" />
<glyph unicode="x" horiz-adv-x="919" d="M-16 0l395 467l-213 418h231l127 -250l209 250h256l-368 -436l229 -449h-229l-146 281l-233 -281h-258z" />
<glyph unicode="y" horiz-adv-x="874" d="M127 -332l182 332h-18l-137 885h213l82 -602l315 602h219l-649 -1217h-207z" />
<glyph unicode="z" horiz-adv-x="909" d="M72 0l30 166l504 524h-418l37 195h701l-31 -168l-506 -522h424l-37 -195h-704z" />
<glyph unicode="{" horiz-adv-x="718" d="M145 289l125 645q13 64 56 115q26 29 85.5 79t92.5 68q76 37 135 37h149l-40 -199h-130l-8 -2q-22 -11 -64.5 -46t-62.5 -60q-4 -4 -8 -25l-125 -625q-3 -16 22 -43t46 -40q3 -3 14 -3h156l-41 -200h-150q-67 0 -121 37q-28 18 -67.5 67t-52.5 78q-25 51 -11 117z" />
<glyph unicode="|" horiz-adv-x="485" d="M43 -188l301 1554h201l-301 -1554h-201z" />
<glyph unicode="}" horiz-adv-x="731" d="M63 -10l41 198h129l9 2q22 10 64.5 46t62.5 61q4 4 8 25l125 624q3 16 -22 43.5t-46 40.5q-2 2 -14 2h-156l41 201h150q66 0 120 -37q28 -18 68 -67t53 -78q25 -51 11 -117l-125 -645q-13 -64 -56 -115q-26 -29 -85.5 -79t-92.5 -68q-76 -37 -135 -37h-150z" />
<glyph unicode="~" horiz-adv-x="946" d="M150 573l194 60q6 -30 20 -43t31 -10l238 45q91 16 158 -27.5t88 -146.5l-193 -60q-14 59 -53 51l-238 -47q-90 -16 -157 29.5t-88 148.5z" />
<glyph unicode="&#xa1;" horiz-adv-x="534" d="M109 0l170 885h210l-170 -885h-210zM291 997l45 228h231l-45 -228h-231z" />
<glyph unicode="&#xa2;" horiz-adv-x="933" d="M121 258l72 369q15 76 61 125q14 18 51.5 49t65.5 49q73 45 157 45h41l66 328h119l-66 -328h49q74 0 140 -51q25 -21 60 -70t42 -82l-191 -55l-4 8q-12 16 -32 35.5t-33 19.5h-68l-102 -516h55q13 0 42 20.5t44 35.5l8 8l189 -60q-20 -33 -73.5 -81.5t-86.5 -69.5 q-78 -47 -156 -47h-59l-63 -324h-119l63 324h-39q-89 0 -141 43q-20 17 -45.5 49t-34.5 51q-26 51 -12 125zM324 244q0 -7 2 -13q11 -24 39 -43q8 -4 12 -4h53l102 516h-24q-11 0 -19 -4q-63 -31 -88 -69l-6 -17z" />
<glyph unicode="&#xa3;" horiz-adv-x="1204" d="M145 358l37 193h80l8 49h-80l39 193h80l23 116q12 71 53 115q26 30 83.5 79t90.5 66q76 37 133 37h293l-39 -205h-276l-13 -2q-21 -11 -53.5 -38t-54.5 -54q-2 -2 -6 -20l-19 -94h430l-39 -193h-430l-8 -49h430l-37 -193h-430l-30 -153h370q11 0 13 2q50 22 108 88l14 20 l175 -57q-7 -17 -28 -46t-38 -46q-60 -66 -137 -116t-154 -50h-577l69 358h-80z" />
<glyph unicode="&#xa4;" horiz-adv-x="1136" d="M225 387l88 74q-2 2 -8 14q-25 49 -10 125l6 49q15 79 59 125l35 35l-59 76l156 131l83 -105q35 7 60 7h172q23 0 51 -7l127 107l121 -154l-88 -73l10 -17q25 -49 10 -125l-6 -49q-15 -79 -59 -125q-10 -13 -29 -29l60 -73l-156 -131l-80 98q-31 -8 -70 -8h-172 q-37 0 -55 4l-125 -103zM467 555q-3 -8 11.5 -23t29.5 -24q4 -2 12 -2h225q5 0 13 4q19 9 52.5 34t37.5 36l18 98v14q-5 11 -17.5 27t-21.5 22q-4 2 -10 2h-229q-6 0 -10 -2q-22 -11 -50 -33.5t-41 -41.5l-6 -13z" />
<glyph unicode="&#xa5;" horiz-adv-x="1005" d="M186 285l37 192h277l10 60h-277l39 192h174l-196 496h227l178 -455l357 455h248l-400 -496h170l-39 -192h-266l-10 -60h266l-37 -192h-266l-55 -285h-215l55 285h-277z" />
<glyph unicode="&#xa6;" horiz-adv-x="395" d="M41 -193l131 674h201l-131 -674h-201zM215 698l129 668h201l-129 -668h-201z" />
<glyph unicode="&#xa7;" horiz-adv-x="1044" d="M119 190l184 56l4 -8q8 -16 29 -34.5t35 -19.5h274q19 0 57.5 31.5t42.5 52.5l7 21q5 26 -23 28l-287 17h-4q-87 0 -141 45q-20 17 -45.5 48t-34.5 50q-25 49 -10 125l6 33q11 51 21.5 73.5t37.5 51.5l35 39q-2 3 -6.5 13.5t-7 16t-6.5 15.5t-5.5 18t-3.5 18.5t-1.5 20.5 t2.5 21l6 34q13 73 59 125q125 138 264 138h238q36 0 75 -13.5t64 -34.5q25 -20 61 -68.5t44 -82.5l-191 -53l-4 8q-7 15 -24 32t-31 17h-254q-19 0 -27 -4q-9 -4 -32.5 -22.5t-34.5 -34.5q-3 -5 -7 -21l-2 -20q-2 -6 5 -16t20 -11l266 -14h4q88 0 142 -45q20 -17 45 -48.5 t34 -50.5q26 -50 9 -135l-4 -22q-11 -50 -22 -73t-38 -52q-10 -15 -18 -23q45 -55 28 -149l-6 -29q-16 -72 -63 -125q-54 -58 -111 -94q-73 -45 -153 -45h-263q-75 0 -139 49q-25 20 -59 68.5t-41 82.5zM412 580q5 -11 17.5 -27.5t21.5 -22.5q4 -2 10 -2l201 -20l34 -2 q5 0 13 4q19 9 52.5 34t37.5 36l6 41v14q-5 11 -17.5 27t-21.5 22h-4l-6 2l-33 2l-41 4l-168 15h-2q-1 0 -2 -1t-2 -1q-19 -9 -52.5 -34t-37.5 -36l-6 -41v-14z" />
<glyph unicode="&#xa8;" horiz-adv-x="743" d="M350 1016l41 211h199l-41 -211h-199zM680 1016l41 211h199l-41 -211h-199z" />
<glyph unicode="&#xa9;" horiz-adv-x="1462" d="M145 305l121 631q17 73 56 117q29 31 86.5 79.5t89.5 65.5q65 35 133 35h618q66 0 117 -35q27 -18 66.5 -67t52.5 -78q25 -52 12 -117l-121 -631q-17 -74 -55 -117q-29 -31 -86.5 -79.5t-89.5 -65.5q-65 -35 -133 -35h-619q-66 0 -117 35q-27 17 -66 66.5t-52 78.5 q-26 53 -13 117zM344 291q-2 -12 14.5 -36.5t42.5 -43.5q11 -8 21 -8h606q10 0 14 2q18 9 56 40t67 60q9 9 9 14l124 631q2 12 -14.5 36.5t-42.5 43.5q-11 8 -20 8h-607q-10 0 -14 -2q-18 -9 -56 -40t-67 -60q-8 -8 -8 -14zM500 510q-12 -61 12 -111q6 -17 30 -46.5 t42 -43.5q40 -33 123 -33h96q55 0 108 31.5t77.5 57.5t72.5 86q8 9 12 14l-166 47q-8 -8 -20.5 -22.5t-22.5 -24t-24 -16.5q-6 -3 -13 -3h-96q-2 0 -14 3q-7 1 -17.5 14.5t-15.5 25.5q-1 3 2 25l37 199q2 6 6 12q11 16 36.5 39t39.5 24h12h103q8 0 10 -2q11 -7 18.5 -15 t15.5 -22t11 -18l155 39q-20 71 -71.5 126.5t-120.5 55.5h-96q-98 0 -137 -26q-24 -14 -60 -43.5t-49 -46.5q-42 -47 -55 -113q-37 -188 -41 -213z" />
<glyph unicode="&#xaa;" horiz-adv-x="854" d="M221 772l31 160l20 102q11 63 45 99q46 46 93 75q61 35 118 35h111q22 0 68 -20l6 18h164l-103 -526l-4 -142h-170l-4 37q-81 -47 -109 -47h-88q-67 0 -108 35q-14 11 -34 36t-28 40q-19 37 -8 98zM391 768q10 -20 33 -35q4 -2 10 -2h94q7 0 15 4q55 31 69 41q3 1 6 10 t3 11l43 221v10q-22 33 -39 45q-2 2 -11 2h-96q-8 0 -12 -2q-32 -18 -64 -55l-4 -10l-47 -230v-10z" />
<glyph unicode="&#xab;" horiz-adv-x="1226" d="M172 498l373 331l211 -65l-310 -277l209 -264l-219 -57zM629 498l372 331l211 -65l-309 -277l209 -264l-219 -57z" />
<glyph unicode="&#xac;" horiz-adv-x="1052" d="M168 401l37 193h852h-2l-90 -477h-205l55 284h-647z" />
<glyph unicode="&#xad;" horiz-adv-x="653" d="M129 401l37 193h455l-37 -193h-455z" />
<glyph unicode="&#xae;" horiz-adv-x="1462" d="M145 305l121 631q17 73 56 117q29 31 86.5 79.5t89.5 65.5q65 35 133 35h618q66 0 117 -35q27 -18 66.5 -67t52.5 -78q25 -52 12 -117l-121 -631q-17 -74 -55 -117q-29 -31 -86.5 -79.5t-89.5 -65.5q-65 -35 -133 -35h-619q-66 0 -117 35q-27 17 -66 66.5t-52 78.5 q-26 53 -13 117zM344 291q-2 -12 14.5 -36.5t42.5 -43.5q11 -8 21 -8h606q10 0 14 2q18 9 56 40t67 60q9 9 9 14l124 631q2 12 -14.5 36.5t-42.5 43.5q-11 8 -20 8h-607q-10 0 -14 -2q-18 -9 -56 -40t-67 -60q-8 -8 -8 -14zM487 264l134 688h303q67 0 118 -41 q17 -13 36.5 -39t27.5 -45q19 -46 10 -104l-6 -33q-13 -64 -51 -110q-51 -51 -82 -74l76 -238h-181l-57 191h-108l-37 -195h-183zM739 631h125q14 6 34 23t32 34l8 47q-14 34 -31 47h-137z" />
<glyph unicode="&#xaf;" horiz-adv-x="727" d="M285 1042l37 183h464l-36 -183h-465z" />
<glyph unicode="&#xb0;" horiz-adv-x="722" d="M324 1206q17 85 87 144t156 59q87 0 143.5 -65.5t39.5 -149.5q-17 -89 -85.5 -148t-154.5 -59q-88 0 -145.5 65.5t-40.5 153.5zM442 1200q-8 -40 15 -69t63 -29q39 0 71 29t40 69q8 37 -13.5 64.5t-60.5 27.5t-73 -27.5t-42 -64.5z" />
<glyph unicode="&#xb1;" horiz-adv-x="1052" d="M61 -193l39 193h785l-39 -193h-785zM182 401l37 193h287l55 289h207l-55 -289h286l-36 -193h-287l-55 -284h-207l55 284h-287z" />
<glyph unicode="&#xb2;" horiz-adv-x="845" d="M215 565l31 172q33 133 190 181l176 55q17 5 46 24t32 35q6 18 -5 33.5t-32 15.5h-121q-33 0 -86 -53l-133 84q55 55 103 86q70 45 145 45h111q102 0 176 -110q29 -46 14 -107q0 -3 -2 -9t-2 -9q-14 -66 -77 -114.5t-138 -70.5q-42 -15 -188 -61h2q-18 -7 -24 -12.5 t-9 -16.5h362l-28 -168h-543z" />
<glyph unicode="&#xb3;" horiz-adv-x="862" d="M215 686l145 80q38 -51 70 -51h152l24 6q48 21 53 53q4 26 -13.5 32.5t-80.5 6.5h-94l31 154h100q19 0 31.5 1t28 5t25.5 13t15 24q3 18 -2 28t-20 21h2l-5 2.5t-6 2.5t-7 1h-144q-31 0 -88 -53l-139 86q52 52 108 86q73 47 148 47h137q95 0 180 -109q25 -43 15 -114 q-18 -85 -84 -121q51 -34 34 -119q-12 -72 -55 -123q-57 -51 -103 -73.5t-116 -22.5h-137q-76 0 -133 47q-30 24 -72 90z" />
<glyph unicode="&#xb4;" horiz-adv-x="759" d="M465 1055l235 243h254l-301 -299z" />
<glyph unicode="&#xb5;" horiz-adv-x="999" d="M-2 -330q47 248 76.5 401.5t70.5 362t88 451.5h205l-123 -635q9 -25 56 -62q4 -2 12 -2h147q14 0 63 29.5t75 52.5l118 617h205l-135 -703l-10 -182h-203l-4 51q-90 -59 -139 -59h-154q-20 0 -41.5 9.5t-32.5 21.5l-71 -353h-203z" />
<glyph unicode="&#xb6;" horiz-adv-x="1079" d="M227 774l29 150q12 67 61 125q19 21 64.5 58t69.5 52q67 45 153 45h588l-234 -1204h-206l96 500h-76l-96 -500h-207l96 500h-98q-85 0 -137 43q-19 15 -49.5 51.5t-40.5 56.5q-25 58 -13 123zM438 752q33 -50 56 -50h110l58 297h-82q-9 0 -13 -2q-73 -41 -98 -75 q-2 -5 -4 -13l-27 -137q-3 -13 0 -20zM811 702h76l57 297h-76z" />
<glyph unicode="&#xb7;" horiz-adv-x="585" d="M193 401l38 205h250l-39 -205h-249z" />
<glyph unicode="&#xb8;" horiz-adv-x="831" d="M131 -406l258 316l186 -60l-213 -256h-231z" />
<glyph unicode="&#xb9;" horiz-adv-x="710" d="M215 561l31 166h160l67 352h-137l29 162h307l-97 -514h158l-31 -166h-487z" />
<glyph unicode="&#xba;" horiz-adv-x="821" d="M221 772l31 160l20 102q11 63 45 99q46 46 93 75q61 35 118 35h131q68 0 109 -35q14 -11 33.5 -35.5t27.5 -39.5q20 -39 9 -99l-52 -262q-11 -62 -45 -98q-50 -50 -92 -76q-61 -35 -119 -35h-131q-67 0 -108 35q-14 11 -34 36t-28 40q-19 37 -8 98zM391 768 q10 -20 33 -35q4 -2 10 -2h107q8 0 12 2q30 17 63 55l5 11l47 229v10q-10 20 -33 35q-4 2 -10 2h-107q-8 0 -12 -2q-32 -18 -64 -55l-4 -10l-47 -230v-10z" />
<glyph unicode="&#xbb;" horiz-adv-x="1204" d="M143 231l310 277l-209 264l219 57l264 -331l-373 -332zM600 231l309 277l-209 264l220 57l264 -331l-373 -332z" />
<glyph unicode="&#xbc;" horiz-adv-x="1591" d="M215 561l31 166h160l67 352h-137l29 162h307l-97 -514h158l-31 -166h-487zM360 0l902 1225h229l-901 -1225h-230zM893 135l31 158l403 393h152l-68 -385h96l-34 -166h-97l-24 -133h-178l24 133h-305zM1110 305h129l37 146z" />
<glyph unicode="&#xbd;" horiz-adv-x="1714" d="M215 561l31 166h160l67 352h-137l29 162h307l-97 -514h158l-31 -166h-487zM362 0l902 1225h229l-901 -1225h-230zM977 -12l31 172q32 132 190 180l176 55q16 5 45.5 24.5t32.5 35.5q6 18 -5 33.5t-32 15.5h-121q-33 0 -86 -53l-133 84q55 55 103 86q70 45 145 45h111 q101 0 176 -111q29 -46 14 -106q0 -3 -2 -9.5t-2 -9.5q-14 -66 -77 -114t-138 -70q-75 -26 -188 -62h2q-18 -7 -24 -12t-9 -16h362l-28 -168h-543z" />
<glyph unicode="&#xbe;" horiz-adv-x="1597" d="M215 686l145 80q38 -51 70 -51h152l24 6q48 21 53 53q4 26 -13.5 32.5t-80.5 6.5h-94l31 154h100q19 0 31.5 1t28 5t25.5 13t15 24q3 18 -2 28t-20 21h2l-5 2.5t-6 2.5t-7 1h-144q-31 0 -88 -53l-139 86q52 52 108 86q73 47 148 47h137q95 0 180 -109q25 -43 15 -114 q-18 -85 -84 -121q51 -34 34 -119q-12 -72 -55 -123q-57 -51 -103 -73.5t-116 -22.5h-137q-76 0 -133 47q-30 24 -72 90zM383 0l901 1225h229l-901 -1225h-229zM895 135l31 158l403 393h152l-68 -385h96l-34 -166h-97l-24 -133h-178l24 133h-305zM1112 305h129l37 146z" />
<glyph unicode="&#xbf;" horiz-adv-x="942" d="M131 281l29 141q13 72 66.5 129.5t123.5 89.5q6 3 31 13t46.5 19.5t46 22.5t40.5 26.5t18 25.5l29 151h215l-31 -160q-7 -33 -20.5 -62t-28.5 -50.5t-39 -42t-43 -34t-51 -29.5t-51 -24.5t-54 -23.5t-52 -22q-29 -13 -35 -41l-25 -136q-3 -13 0 -20q24 -49 49 -49h232 q9 0 18 6q63 37 105 92l10 14l203 -63q-21 -35 -64 -86q-150 -168 -293 -168h-237q-83 0 -136 47q-19 15 -49 52t-41 57q-25 57 -12 125zM559 991l45 240h248l-45 -240h-248z" />
<glyph unicode="&#xc0;" horiz-adv-x="1124" d="M-49 0l665 1225h250l189 -1225h-217l-41 260h-465l-139 -260h-242zM440 465h330l-72 483zM573 1575h222l141 -248l-180 -51z" />
<glyph unicode="&#xc1;" horiz-adv-x="1124" d="M-49 0l665 1225h250l189 -1225h-217l-41 260h-465l-139 -260h-242zM440 465h330l-72 483zM659 1350l236 243h254l-301 -299z" />
<glyph unicode="&#xc2;" horiz-adv-x="1124" d="M-49 0l665 1225h250l189 -1225h-217l-41 260h-465l-139 -260h-242zM440 465h330l-72 483zM473 1305l258 268h184l152 -268h-207l-57 106l-98 -106h-232z" />
<glyph unicode="&#xc3;" horiz-adv-x="1124" d="M-49 0l665 1225h250l189 -1225h-217l-41 260h-465l-139 -260h-242zM440 465h330l-72 483zM455 1485l172 43q7 -30 25.5 -43t35.5 -8l160 43q86 26 156.5 -18.5t93.5 -149.5l-160 -47q-7 30 -31 46t-41 11l-157 -43q-83 -26 -157.5 18.5t-96.5 147.5z" />
<glyph unicode="&#xc4;" horiz-adv-x="1124" d="M-49 0l665 1225h250l189 -1225h-217l-41 260h-465l-139 -260h-242zM440 465h330l-72 483zM498 1337l41 211h198l-41 -211h-198zM827 1337l41 211h199l-41 -211h-199z" />
<glyph unicode="&#xc5;" horiz-adv-x="1124" d="M-51 0l665 1225h250l189 -1225h-217l-41 260h-465l-140 -260h-241zM438 465h330l-72 483zM586 1524q18 86 83 142t154 56q87 0 145.5 -65.5t41.5 -149.5q-17 -90 -80.5 -146t-153.5 -56q-88 0 -147.5 66t-42.5 153zM702 1516q-8 -40 15 -69.5t63 -29.5q39 0 71 29.5 t40 69.5q8 37 -13.5 64.5t-60.5 27.5t-73 -27.5t-42 -64.5z" />
<glyph unicode="&#xc6;" horiz-adv-x="1472" d="M-49 0l665 1225h897l-40 -205h-490l-59 -309h450l-39 -205h-450l-60 -301h490l-39 -205h-709l49 260h-284l-139 -260h-242zM440 465h217l107 555h-27z" />
<glyph unicode="&#xc7;" horiz-adv-x="1118" d="M145 289l125 645q13 64 56 115q26 29 85.5 79t92.5 68q76 37 135 37h256q130 0 225 -170q16 -30 31 -72l-205 -57q-47 74 -74 92q-2 2 -8 2h-246l-8 -2q-22 -11 -62.5 -44.5t-60.5 -57.5q-4 -4 -8 -25l-123 -623q-3 -16 19 -41t43 -38q2 -2 14 -2h242q6 0 10 2 q21 9 48.5 33.5t45.5 44.5l17 20l209 -57q-25 -40 -58 -78q-161 -170 -293 -170h-256q-67 0 -121 37q-28 18 -67.5 67t-52.5 78q-25 51 -11 117zM193 -406l258 316l186 -60l-213 -256h-231z" />
<glyph unicode="&#xc8;" horiz-adv-x="1056" d="M90 0l238 1225h770l-41 -205h-553l-60 -309h514l-38 -205h-514l-60 -301h553l-39 -205h-770zM553 1595h221l141 -247l-180 -52z" />
<glyph unicode="&#xc9;" horiz-adv-x="1056" d="M90 0l238 1225h770l-41 -205h-553l-60 -309h514l-38 -205h-514l-60 -301h553l-39 -205h-770zM598 1350l236 243h253l-301 -299z" />
<glyph unicode="&#xca;" horiz-adv-x="1056" d="M90 0l238 1225h770l-41 -205h-553l-60 -309h514l-38 -205h-514l-60 -301h553l-39 -205h-770zM440 1305l258 268h185l151 -268h-207l-57 106l-98 -106h-232z" />
<glyph unicode="&#xcb;" horiz-adv-x="1056" d="M90 0l238 1225h770l-41 -205h-553l-60 -309h514l-38 -205h-514l-60 -301h553l-39 -205h-770zM483 1335l41 211h199l-41 -211h-199zM813 1335l41 211h199l-41 -211h-199z" />
<glyph unicode="&#xcc;" horiz-adv-x="491" d="M90 0l238 1225h215l-234 -1225h-219zM188 1593h222l141 -247l-180 -52z" />
<glyph unicode="&#xcd;" horiz-adv-x="491" d="M90 0l238 1225h215l-234 -1225h-219zM340 1350l235 243h254l-301 -299z" />
<glyph unicode="&#xce;" horiz-adv-x="491" d="M90 0l238 1225h215l-234 -1225h-219zM152 1305l258 268h184l151 -268h-206l-58 106l-98 -106h-231z" />
<glyph unicode="&#xcf;" horiz-adv-x="491" d="M90 0l238 1225h215l-234 -1225h-219zM193 1337l40 211h199l-41 -211h-198zM522 1337l41 211h199l-41 -211h-199z" />
<glyph unicode="&#xd0;" horiz-adv-x="1193" d="M76 516l39 193h153l101 516h561q73 0 117 -35q28 -19 66 -69t52 -81q25 -47 11 -116l-121 -627q-15 -71 -54 -117q-26 -30 -85.5 -77.5t-94.5 -65.5q-76 -37 -129 -37h-561l100 516h-155zM385 205h313q9 0 21 6q29 14 74.5 50.5t48.5 53.5l119 607q3 13 -3 28 q-16 41 -53 66q-6 4 -20 4h-342l-62 -311h213l-39 -193h-211z" />
<glyph unicode="&#xd1;" horiz-adv-x="1159" d="M49 0l238 1225h231l258 -826l162 826h215l-238 -1225h-227l-264 815l-160 -815h-215zM455 1485l172 43q7 -30 25.5 -43t35.5 -8l160 43q86 26 156.5 -18.5t93.5 -149.5l-160 -47q-7 30 -31 46t-41 11l-157 -43q-83 -26 -157.5 18.5t-96.5 147.5z" />
<glyph unicode="&#xd2;" horiz-adv-x="1202" d="M145 289l125 645q13 64 56 115q26 29 85.5 79t92.5 68q76 37 135 37h309q67 0 121 -37q28 -18 68 -67t53 -78q24 -49 10 -117l-125 -645q-13 -65 -55 -115q-26 -29 -85.5 -79t-92.5 -68q-76 -37 -135 -37h-310q-67 0 -121 37q-28 18 -67.5 67t-52.5 78q-25 51 -11 117z M356 276q-3 -16 19 -41t43 -38q2 -2 14 -2h295l8 2q22 11 62.5 44.5t60.5 57.5q4 4 8 25l123 622q3 16 -19 42t-42 38q-2 2 -15 2h-295l-8 -2q-22 -11 -62.5 -44.5t-60.5 -57.5q-4 -4 -8 -25zM623 1593h221l141 -247l-180 -52z" />
<glyph unicode="&#xd3;" horiz-adv-x="1206" d="M145 289l125 645q13 64 56 115q26 29 85.5 79t92.5 68q76 37 135 37h309q67 0 121 -37q28 -18 68 -67t53 -78q24 -49 10 -117l-125 -645q-13 -65 -55 -115q-26 -29 -85.5 -79t-92.5 -68q-76 -37 -135 -37h-310q-67 0 -121 37q-28 18 -67.5 67t-52.5 78q-25 51 -11 117z M356 276q-3 -16 19 -41t43 -38q2 -2 14 -2h295l8 2q22 11 62.5 44.5t60.5 57.5q4 4 8 25l123 622q3 16 -19 42t-42 38q-2 2 -15 2h-295l-8 -2q-22 -11 -62.5 -44.5t-60.5 -57.5q-4 -4 -8 -25zM604 1350l236 243h254l-301 -299z" />
<glyph unicode="&#xd4;" horiz-adv-x="1206" d="M145 289l125 645q13 64 56 115q26 29 85.5 79t92.5 68q76 37 135 37h309q67 0 121 -37q28 -18 68 -67t53 -78q24 -49 10 -117l-125 -645q-13 -65 -55 -115q-26 -29 -85.5 -79t-92.5 -68q-76 -37 -135 -37h-310q-67 0 -121 37q-28 18 -67.5 67t-52.5 78q-25 51 -11 117z M356 276q-3 -16 19 -41t43 -38q2 -2 14 -2h295l8 2q22 11 62.5 44.5t60.5 57.5q4 4 8 25l123 622q3 16 -19 42t-42 38q-2 2 -15 2h-295l-8 -2q-22 -11 -62.5 -44.5t-60.5 -57.5q-4 -4 -8 -25zM526 1305l258 268h185l151 -268h-207l-57 106l-98 -106h-232z" />
<glyph unicode="&#xd5;" horiz-adv-x="1185" d="M145 289l125 645q13 64 56 115q26 29 85.5 79t92.5 68q76 37 135 37h309q67 0 121 -37q28 -18 68 -67t53 -78q24 -49 10 -117l-125 -645q-13 -65 -55 -115q-26 -29 -85.5 -79t-92.5 -68q-76 -37 -135 -37h-310q-67 0 -121 37q-28 18 -67.5 67t-52.5 78q-25 51 -11 117z M356 276q-3 -16 19 -41t43 -38q2 -2 14 -2h295l8 2q22 11 62.5 44.5t60.5 57.5q4 4 8 25l123 622q3 16 -19 42t-42 38q-2 2 -15 2h-295l-8 -2q-22 -11 -62.5 -44.5t-60.5 -57.5q-4 -4 -8 -25zM516 1485l172 43q7 -30 26 -43t36 -8l159 43q86 26 156.5 -18.5t93.5 -149.5 l-160 -47q-7 30 -30.5 46t-40.5 11l-158 -43q-83 -26 -157.5 18.5t-96.5 147.5z" />
<glyph unicode="&#xd6;" horiz-adv-x="1206" d="M145 289l125 645q13 64 56 115q26 29 85.5 79t92.5 68q76 37 135 37h309q67 0 121 -37q28 -18 68 -67t53 -78q24 -49 10 -117l-125 -645q-13 -65 -55 -115q-26 -29 -85.5 -79t-92.5 -68q-76 -37 -135 -37h-310q-67 0 -121 37q-28 18 -67.5 67t-52.5 78q-25 51 -11 117z M356 276q-3 -16 19 -41t43 -38q2 -2 14 -2h295l8 2q22 11 62.5 44.5t60.5 57.5q4 4 8 25l123 622q3 16 -19 42t-42 38q-2 2 -15 2h-295l-8 -2q-22 -11 -62.5 -44.5t-60.5 -57.5q-4 -4 -8 -25zM553 1335l41 211h199l-41 -211h-199zM883 1335l41 211h198l-41 -211h-198z" />
<glyph unicode="&#xd7;" horiz-adv-x="1052" d="M158 264l293 244l-197 246l156 131l198 -248l299 252l121 -154l-297 -252l193 -241l-156 -131l-195 243l-294 -243z" />
<glyph unicode="&#xd8;" horiz-adv-x="1169" d="M113 -51l100 137q-45 56 -57 86q-25 51 -11 117l125 645q13 64 56 115q26 29 85.5 79t92.5 68q76 37 135 37h309q47 0 99 -25l49 68h139l-105 -139q40 -46 60 -86q24 -49 10 -117l-125 -645q-13 -65 -55 -115q-26 -29 -85.5 -79t-92.5 -68q-76 -37 -135 -37h-310 q-49 0 -98 22l-47 -63h-139zM356 279l555 749h-293l-8 -2q-22 -11 -62.5 -44.5t-60.5 -57.5q-4 -4 -8 -25zM434 195h293l8 2q22 11 62.5 44.5t60.5 57.5q4 4 8 25l121 618z" />
<glyph unicode="&#xd9;" horiz-adv-x="1136" d="M127 289l182 936h215l-186 -949q-3 -16 19 -41.5t42 -37.5q2 -2 15 -2h241l9 2q22 11 62 44t60 58q5 5 9 25l176 901h215l-182 -936q-13 -64 -56 -115q-26 -29 -85.5 -79t-92.5 -68q-76 -37 -135 -37h-256q-67 0 -121 37q-28 18 -68 67t-53 78q-24 49 -10 117zM592 1593 h221l141 -247l-180 -52z" />
<glyph unicode="&#xda;" horiz-adv-x="1136" d="M127 289l182 936h215l-186 -949q-3 -16 19 -41.5t42 -37.5q2 -2 15 -2h241l9 2q22 11 62 44t60 58q5 5 9 25l176 901h215l-182 -936q-13 -64 -56 -115q-26 -29 -85.5 -79t-92.5 -68q-76 -37 -135 -37h-256q-67 0 -121 37q-28 18 -68 67t-53 78q-24 49 -10 117zM584 1350 l235 243h254l-301 -299z" />
<glyph unicode="&#xdb;" horiz-adv-x="1136" d="M127 289l182 936h215l-186 -949q-3 -16 19 -41.5t42 -37.5q2 -2 15 -2h241l9 2q22 11 62 44t60 58q5 5 9 25l176 901h215l-182 -936q-13 -64 -56 -115q-26 -29 -85.5 -79t-92.5 -68q-76 -37 -135 -37h-256q-67 0 -121 37q-28 18 -68 67t-53 78q-24 49 -10 117zM477 1305 l258 268h185l151 -268h-207l-57 106l-98 -106h-232z" />
<glyph unicode="&#xdc;" horiz-adv-x="1136" d="M127 289l182 936h215l-186 -949q-3 -16 19 -41.5t42 -37.5q2 -2 15 -2h241l9 2q22 11 62 44t60 58q5 5 9 25l176 901h215l-182 -936q-13 -64 -56 -115q-26 -29 -85.5 -79t-92.5 -68q-76 -37 -135 -37h-256q-67 0 -121 37q-28 18 -68 67t-53 78q-24 49 -10 117zM506 1335 l41 211h198l-40 -211h-199zM836 1335l41 211h198l-41 -211h-198z" />
<glyph unicode="&#xdd;" horiz-adv-x="1064" d="M207 1225h223l182 -465l363 465h254l-541 -690l-102 -535h-215l102 535zM553 1350l235 243h254l-301 -299z" />
<glyph unicode="&#xde;" horiz-adv-x="1099" d="M88 0v-2v2l240 1225h215l-47 -238h362q81 0 135 -45q19 -14 48.5 -52.5t41.5 -60.5q25 -58 13 -124l-35 -181q-12 -65 -62 -125q-19 -21 -63 -57t-68 -51q-71 -45 -155 -45h-359l-49 -246h-217zM395 451h340q14 0 52.5 26t52.5 47q8 11 10 19l37 178q2 8 0 14 q-6 17 -19 31t-24 16h-385z" />
<glyph unicode="&#xdf;" horiz-adv-x="1138" d="M61 0l54 182l143 740q11 66 57 118q30 32 85.5 81t88.5 67q76 37 138 37h121q81 0 135 -45q20 -16 45 -47.5t35 -51.5q27 -58 14 -129l-19 -100q-8 -38 -34 -70t-76 -73l-12.5 -10t-10.5 -8.5t-8.5 -7t-7 -6.5t-5.5 -5t-5 -5t-3.5 -5t-3.5 -5.5t-2.5 -5t-3.5 -6.5t-5 -15 l-3 -12l-4 -34q-2 -6 6 -15t21 -10q24 -3 50.5 -7.5t51.5 -6.5q89 -8 135 -57t27 -144l-16 -90q-16 -71 -64 -125q-54 -58 -111 -94q-64 -40 -153 -43h-201q-53 0 -104 35q0 -1 28 41.5t56 85.5l28 43q12 -7 33 -11h178q20 0 61.5 31.5t45.5 52.5l14 66q5 26 -24 29 q-26 2 -46.5 4.5t-39.5 5.5t-29 4q-85 11 -130 62t-26 143l15 71q8 41 27 73t61 65q4 4 20.5 16.5t33 26.5t28.5 28q8 9 10 25l14 78v16q-6 16 -23 31.5t-30 15.5h-121q-20 0 -65 -40t-68 -70l-6 -15l-150 -758l-43 -147h-207z" />
<glyph unicode="&#xe0;" horiz-adv-x="987" d="M84 256l6 37q16 74 62 125q35 40 114 92q73 45 156 45h283l16 84q2 8 0 10q-4 10 -18 25.5t-23 21.5q-8 4 -12 4h-189q-29 0 -94 -65l-188 59q21 34 75.5 83t87.5 69q78 49 156 49h176q88 0 142 -45q21 -17 45.5 -47t33.5 -49q26 -51 11 -127l-86 -447l-4 -180h-203 l-15 45q-84 -55 -135 -55h-168q-85 0 -139 45q-19 17 -44 47.5t-34 48.5q-26 48 -12 125zM287 244q0 -4 2 -8q13 -29 37 -48q4 -4 12 -4h168q16 0 70 33.5t73 50.5l21 105h-275q-8 0 -16 -4q-44 -25 -82 -72q-2 -4 -2 -6zM440 1298h222l141 -247l-180 -52z" />
<glyph unicode="&#xe1;" horiz-adv-x="987" d="M84 256l6 37q16 74 62 125q35 40 114 92q73 45 156 45h283l16 84q2 8 0 10q-4 10 -18 25.5t-23 21.5q-8 4 -12 4h-189q-29 0 -94 -65l-188 59q21 34 75.5 83t87.5 69q78 49 156 49h176q88 0 142 -45q21 -17 45.5 -47t33.5 -49q26 -51 11 -127l-86 -447l-4 -180h-203 l-15 45q-84 -55 -135 -55h-168q-85 0 -139 45q-19 17 -44 47.5t-34 48.5q-26 48 -12 125zM287 244q0 -4 2 -8q13 -29 37 -48q4 -4 12 -4h168q16 0 70 33.5t73 50.5l21 105h-275q-8 0 -16 -4q-44 -25 -82 -72q-2 -4 -2 -6zM467 1055l235 243h254l-301 -299z" />
<glyph unicode="&#xe2;" horiz-adv-x="987" d="M84 256l6 37q16 74 62 125q35 40 114 92q73 45 156 45h283l16 84q2 8 0 10q-4 10 -18 25.5t-23 21.5q-8 4 -12 4h-189q-29 0 -94 -65l-188 59q21 34 75.5 83t87.5 69q78 49 156 49h176q88 0 142 -45q21 -17 45.5 -47t33.5 -49q26 -51 11 -127l-86 -447l-4 -180h-203 l-15 45q-84 -55 -135 -55h-168q-85 0 -139 45q-19 17 -44 47.5t-34 48.5q-26 48 -12 125zM287 244q0 -4 2 -8q13 -29 37 -48q4 -4 12 -4h168q16 0 70 33.5t73 50.5l21 105h-275q-8 0 -16 -4q-44 -25 -82 -72q-2 -4 -2 -6zM330 1010l258 268h184l152 -268h-207l-58 106 l-98 -106h-231z" />
<glyph unicode="&#xe3;" horiz-adv-x="987" d="M84 256l6 37q16 74 62 125q35 40 114 92q73 45 156 45h283l16 84q2 8 0 10q-4 10 -18 25.5t-23 21.5q-8 4 -12 4h-189q-29 0 -94 -65l-188 59q21 34 75.5 83t87.5 69q78 49 156 49h176q88 0 142 -45q21 -17 45.5 -47t33.5 -49q26 -51 11 -127l-86 -447l-4 -180h-203 l-15 45q-84 -55 -135 -55h-168q-85 0 -139 45q-19 17 -44 47.5t-34 48.5q-26 48 -12 125zM287 244q0 -4 2 -8q13 -29 37 -48q4 -4 12 -4h168q16 0 70 33.5t73 50.5l21 105h-275q-8 0 -16 -4q-44 -25 -82 -72q-2 -4 -2 -6zM342 1198l172 43q7 -30 25.5 -43t35.5 -8l160 43 q86 26 156.5 -18.5t93.5 -149.5l-160 -47q-7 30 -30.5 46t-40.5 11l-158 -43q-83 -26 -157.5 18.5t-96.5 147.5z" />
<glyph unicode="&#xe4;" horiz-adv-x="980" d="M84 256l6 37q16 74 62 125q35 40 114 92q73 45 156 45h283l16 84q2 8 0 10q-4 10 -18 25.5t-23 21.5q-8 4 -12 4h-189q-29 0 -94 -65l-188 59q21 34 75.5 83t87.5 69q78 49 156 49h176q88 0 142 -45q21 -17 45.5 -47t33.5 -49q26 -51 11 -127l-86 -447l-4 -180h-203 l-15 45q-84 -55 -135 -55h-168q-85 0 -139 45q-19 17 -44 47.5t-34 48.5q-26 48 -12 125zM287 244q0 -4 2 -8q13 -29 37 -48q4 -4 12 -4h168q16 0 70 33.5t73 50.5l21 105h-275q-8 0 -16 -4q-44 -25 -82 -72q-2 -4 -2 -6zM350 1016l41 211h199l-41 -211h-199zM680 1016 l41 211h199l-41 -211h-199z" />
<glyph unicode="&#xe5;" horiz-adv-x="987" d="M84 256l6 37q16 74 62 125q35 40 114 92q73 45 156 45h283l16 84q2 8 0 10q-4 10 -18 25.5t-23 21.5q-8 4 -12 4h-189q-29 0 -94 -65l-188 59q21 34 75.5 83t87.5 69q78 49 156 49h176q88 0 142 -45q21 -17 45.5 -47t33.5 -49q26 -51 11 -127l-86 -447l-4 -180h-203 l-15 45q-84 -55 -135 -55h-168q-85 0 -139 45q-19 17 -44 47.5t-34 48.5q-26 48 -12 125zM287 244q0 -4 2 -8q13 -29 37 -48q4 -4 12 -4h168q16 0 70 33.5t73 50.5l21 105h-275q-8 0 -16 -4q-44 -25 -82 -72q-2 -4 -2 -6zM451 1229q18 86 83 142t154 56q87 0 145 -65.5 t41 -149.5q-17 -91 -80 -146.5t-153 -55.5q-88 0 -147.5 66t-42.5 153zM567 1221q-8 -40 15 -69.5t63 -29.5q39 0 71 29.5t40 69.5q8 37 -13.5 64.5t-60.5 27.5t-73 -27.5t-42 -64.5z" />
<glyph unicode="&#xe6;" horiz-adv-x="1515" d="M84 256l6 37q16 74 62 125q35 40 114 92q73 45 156 45h283l16 76q1 3 1 9t-1 9q-18 32 -41 47q-8 4 -12 4h-189q-29 0 -94 -65l-188 59q21 34 75.5 83t87.5 69q78 49 156 49h176q88 0 142 -45q22 -22 26 -27l39 27q73 45 158 45h188q87 0 141 -45q20 -17 45.5 -48 t34.5 -50q27 -53 13 -125l-56 -283h-555l-16 -90l-2 -10q-3 -11 21.5 -35.5t35.5 -24.5h203q13 0 43.5 21t44.5 35l8 8l185 -60q-20 -33 -73.5 -81.5t-86.5 -69.5q-78 -47 -156 -47h-192q-90 0 -142 43q-21 18 -49 53l-61 -41q-78 -55 -150 -55h-168q-85 0 -139 45 q-19 17 -44 47.5t-34 48.5q-26 48 -12 125zM287 244q0 -4 2 -8q13 -29 37 -48q4 -4 12 -4h168q16 0 70 33.5t73 50.5l21 105h-275q-8 0 -16 -4q-44 -25 -82 -72q-2 -4 -2 -6zM903 526h350l23 111q2 10 0 12q-4 10 -18.5 26.5t-24.5 22.5q-4 2 -12 2h-193q-15 0 -49 -24.5 t-53 -48.5l-4 -13z" />
<glyph unicode="&#xe7;" horiz-adv-x="976" d="M121 258l72 369q15 76 61 125q14 18 51.5 49t65.5 49q73 45 157 45h189q73 0 139 -51q25 -21 60 -70t42 -82l-190 -55l-4 8q-11 16 -32 35.5t-34 19.5h-190q-11 0 -19 -4q-63 -31 -88 -69l-6 -17l-71 -366q0 -7 2 -13q11 -24 39 -43q8 -4 12 -4h207q13 0 42 20.5t44 35.5 l8 8l188 -60q-20 -34 -73 -82.5t-86 -68.5q-78 -47 -156 -47h-197q-89 0 -141 43q-20 17 -45.5 49t-34.5 51q-26 51 -12 125zM131 -406l258 316l186 -60l-213 -256h-231z" />
<glyph unicode="&#xe8;" horiz-adv-x="989" d="M117 258l71 369q13 71 64 125q15 17 53 49t64 49q73 45 157 45h189q87 0 141 -45q20 -17 45.5 -48t34.5 -50q26 -51 12 -125l-55 -283h-555l-19 -96v-10q8 -22 27 -38t31 -16h203q13 0 43.5 21t44.5 35l8 8l184 -60q-20 -33 -73.5 -81.5t-86.5 -69.5q-78 -47 -155 -47 h-193q-89 0 -141 43q-19 17 -45 48.5t-35 49.5q-28 51 -14 127zM373 526h350l22 111q2 10 0 12q-4 10 -18.5 26.5t-24.5 22.5q-4 2 -12 2h-192q-15 0 -49.5 -24.5t-53.5 -48.5l-4 -13zM440 1298h222l141 -247l-180 -52z" />
<glyph unicode="&#xe9;" horiz-adv-x="989" d="M117 258l71 369q13 71 64 125q15 17 53 49t64 49q73 45 157 45h189q87 0 141 -45q20 -17 45.5 -48t34.5 -50q26 -51 12 -125l-55 -283h-555l-19 -96v-10q8 -22 27 -38t31 -16h203q13 0 43.5 21t44.5 35l8 8l184 -60q-20 -33 -73.5 -81.5t-86.5 -69.5q-78 -47 -155 -47 h-193q-89 0 -141 43q-19 17 -45 48.5t-35 49.5q-28 51 -14 127zM373 526h350l22 111q2 10 0 12q-4 10 -18.5 26.5t-24.5 22.5q-4 2 -12 2h-192q-15 0 -49.5 -24.5t-53.5 -48.5l-4 -13zM471 1055l236 243h254l-302 -299z" />
<glyph unicode="&#xea;" horiz-adv-x="999" d="M117 258l71 369q13 71 64 125q15 17 53 49t64 49q73 45 157 45h189q87 0 141 -45q20 -17 45.5 -48t34.5 -50q26 -51 12 -125l-55 -283h-555l-19 -96v-10q8 -22 27 -38t31 -16h203q13 0 43.5 21t44.5 35l8 8l184 -60q-20 -33 -73.5 -81.5t-86.5 -69.5q-78 -47 -155 -47 h-193q-89 0 -141 43q-19 17 -45 48.5t-35 49.5q-28 51 -14 127zM373 526h350l22 111q2 10 0 12q-4 10 -18.5 26.5t-24.5 22.5q-4 2 -12 2h-192q-15 0 -49.5 -24.5t-53.5 -48.5l-4 -13zM373 1010l258 268h184l152 -268h-207l-58 106l-98 -106h-231z" />
<glyph unicode="&#xeb;" horiz-adv-x="985" d="M117 258l71 369q13 71 64 125q15 17 53 49t64 49q73 45 157 45h189q87 0 141 -45q20 -17 45.5 -48t34.5 -50q26 -51 12 -125l-55 -283h-555l-19 -96v-10q8 -22 27 -38t31 -16h203q13 0 43.5 21t44.5 35l8 8l184 -60q-20 -33 -73.5 -81.5t-86.5 -69.5q-78 -47 -155 -47 h-193q-89 0 -141 43q-19 17 -45 48.5t-35 49.5q-28 51 -14 127zM373 526h350l22 111q2 10 0 12q-4 10 -18.5 26.5t-24.5 22.5q-4 2 -12 2h-192q-15 0 -49.5 -24.5t-53.5 -48.5l-4 -13zM381 1016l41 211h199l-41 -211h-199zM711 1016l41 211h198l-41 -211h-198z" />
<glyph unicode="&#xec;" horiz-adv-x="452" d="M88 -2l172 883h205l-172 -883h-205zM104 1298h222l141 -247l-180 -52z" />
<glyph unicode="&#xed;" horiz-adv-x="452" d="M88 -2l172 883h205l-172 -883h-205zM293 1053l235 243h254l-301 -299z" />
<glyph unicode="&#xee;" horiz-adv-x="452" d="M86 1010l258 268h184l152 -268h-207l-57 106l-99 -106h-231zM88 -2l172 883h205l-172 -883h-205z" />
<glyph unicode="&#xef;" horiz-adv-x="452" d="M88 -2l172 883h205l-172 -883h-205zM125 1016l41 211h199l-41 -211h-199zM455 1016l41 211h198l-41 -211h-198z" />
<glyph unicode="&#xf0;" horiz-adv-x="985" d="M121 258l72 369q15 79 59 125q14 18 52 48.5t67 49.5q73 45 155 45h154q65 0 113 -74l8 53q7 43 -31 64l-106 61l-115 -47l-60 146l-81 49l110 153l184 -108l203 86l62 -156l-84 -35l6 -2q74 -47 98 -91.5t8 -123.5l-6 -32l-110 -580q-15 -78 -60 -125q-15 -18 -52.5 -50 t-64.5 -50q-70 -43 -157 -43h-193q-87 0 -139 43q-20 17 -46.5 49t-35.5 51q-25 49 -10 125zM322 233q-3 -8 11 -23t29 -24q5 -2 13 -2h196q5 0 13 4q19 9 52.5 34t37.5 36l74 365q-16 24 -49.5 50.5t-51.5 26.5h-147q-7 0 -11 -2q-22 -10 -49 -33t-41 -42l-6 -13z" />
<glyph unicode="&#xf1;" horiz-adv-x="1013" d="M88 0l135 702l10 183h201l6 -47q91 57 140 57h151q87 0 141 -45q20 -17 45.5 -48t34.5 -50q27 -53 13 -125l-121 -627h-205l123 639v12q-8 23 -39 47q-2 2 -16 2h-148q-44 0 -149 -92l-117 -608h-205zM342 1198l172 43q7 -30 25.5 -43t35.5 -8l160 43q86 26 156.5 -18.5 t93.5 -149.5l-160 -47q-7 30 -30.5 46t-40.5 11l-158 -43q-83 -26 -157.5 18.5t-96.5 147.5z" />
<glyph unicode="&#xf2;" horiz-adv-x="991" d="M121 258l72 369q15 79 59 125q14 18 52 48.5t67 49.5q73 45 155 45h193q87 0 141 -45q20 -17 45.5 -48t34.5 -50q25 -49 10 -125l-71 -369q-15 -78 -60 -125q-15 -18 -52.5 -50t-64.5 -50q-70 -43 -157 -43h-193q-87 0 -139 43q-20 17 -46.5 49t-35.5 51q-25 49 -10 125z M322 233q-3 -8 11 -23t29 -24q5 -2 13 -2h196q5 0 13 4q19 9 52.5 34t37.5 36l71 377v14q-5 11 -17 27t-21 22q-4 2 -11 2h-196q-7 0 -11 -2q-22 -10 -49 -33t-41 -42l-6 -13zM440 1298h222l141 -247l-180 -52z" />
<glyph unicode="&#xf3;" horiz-adv-x="991" d="M121 258l72 369q15 79 59 125q14 18 52 48.5t67 49.5q73 45 155 45h193q87 0 141 -45q20 -17 45.5 -48t34.5 -50q25 -49 10 -125l-71 -369q-15 -78 -60 -125q-15 -18 -52.5 -50t-64.5 -50q-70 -43 -157 -43h-193q-87 0 -139 43q-20 17 -46.5 49t-35.5 51q-25 49 -10 125z M322 233q-3 -8 11 -23t29 -24q5 -2 13 -2h196q5 0 13 4q19 9 52.5 34t37.5 36l71 377v14q-5 11 -17 27t-21 22q-4 2 -11 2h-196q-7 0 -11 -2q-22 -10 -49 -33t-41 -42l-6 -13zM463 1055l235 243h254l-301 -299z" />
<glyph unicode="&#xf4;" horiz-adv-x="991" d="M121 258l72 369q15 79 59 125q14 18 52 48.5t67 49.5q73 45 155 45h193q87 0 141 -45q20 -17 45.5 -48t34.5 -50q25 -49 10 -125l-71 -369q-15 -78 -60 -125q-15 -18 -52.5 -50t-64.5 -50q-70 -43 -157 -43h-193q-87 0 -139 43q-20 17 -46.5 49t-35.5 51q-25 49 -10 125z M322 233q-3 -8 11 -23t29 -24q5 -2 13 -2h196q5 0 13 4q19 9 52.5 34t37.5 36l71 377v14q-5 11 -17 27t-21 22q-4 2 -11 2h-196q-7 0 -11 -2q-22 -10 -49 -33t-41 -42l-6 -13zM352 1010l258 268h185l151 -268h-207l-57 106l-98 -106h-232z" />
<glyph unicode="&#xf5;" horiz-adv-x="991" d="M121 258l72 369q15 79 59 125q14 18 52 48.5t67 49.5q73 45 155 45h193q87 0 141 -45q20 -17 45.5 -48t34.5 -50q25 -49 10 -125l-71 -369q-15 -78 -60 -125q-15 -18 -52.5 -50t-64.5 -50q-70 -43 -157 -43h-193q-87 0 -139 43q-20 17 -46.5 49t-35.5 51q-25 49 -10 125z M322 233q-3 -8 11 -23t29 -24q5 -2 13 -2h196q5 0 13 4q19 9 52.5 34t37.5 36l71 377v14q-5 11 -17 27t-21 22q-4 2 -11 2h-196q-7 0 -11 -2q-22 -10 -49 -33t-41 -42l-6 -13zM344 1198l172 43q7 -30 26 -43t36 -8l159 43q86 26 156.5 -18.5t93.5 -149.5l-160 -47 q-7 30 -30.5 46t-40.5 11l-158 -43q-83 -26 -157.5 18.5t-96.5 147.5z" />
<glyph unicode="&#xf6;" horiz-adv-x="991" d="M121 258l72 369q15 79 59 125q14 18 52 48.5t67 49.5q73 45 155 45h193q87 0 141 -45q20 -17 45.5 -48t34.5 -50q25 -49 10 -125l-71 -369q-15 -78 -60 -125q-15 -18 -52.5 -50t-64.5 -50q-70 -43 -157 -43h-193q-87 0 -139 43q-20 17 -46.5 49t-35.5 51q-25 49 -10 125z M322 233q-3 -8 11 -23t29 -24q5 -2 13 -2h196q5 0 13 4q19 9 52.5 34t37.5 36l71 377v14q-5 11 -17 27t-21 22q-4 2 -11 2h-196q-7 0 -11 -2q-22 -10 -49 -33t-41 -42l-6 -13zM381 1016l41 211h199l-41 -211h-199zM711 1016l41 211h198l-41 -211h-198z" />
<glyph unicode="&#xf7;" horiz-adv-x="962" d="M150 401l36 195h727l-36 -195h-727zM307 0l49 258h252l-49 -258h-252zM451 748l51 258h252l-52 -258h-251z" />
<glyph unicode="&#xf8;" horiz-adv-x="1001" d="M94 -72l94 127q-43 47 -57 78q-25 49 -10 125l72 369q15 79 59 125q14 18 52 48.5t67 49.5q73 45 155 45h217q30 0 68 -10l45 61h139l-88 -119q41 -45 58 -75q25 -49 10 -125l-72 -369q-15 -79 -59 -125q-15 -18 -52.5 -50t-64.5 -50q-70 -43 -158 -43h-217q-33 0 -71 10 l-54 -72h-133zM322 231l350 469h-172q-7 0 -11 -2q-22 -10 -49 -33t-41 -42l-6 -13l-71 -377v-2zM420 184h176q4 0 12 4q19 9 52.5 34t37.5 36l72 377v12z" />
<glyph unicode="&#xf9;" horiz-adv-x="999" d="M113 260l120 625h205l-121 -635q-2 -11 0 -17q14 -29 39 -45q4 -2 13 -2h161q14 0 63 29.5t75 52.5l118 617h205l-135 -703l-8 -182h-201l-8 51q-90 -59 -139 -59h-154q-89 0 -141 43q-20 17 -45.5 49t-34.5 51q-26 51 -12 125zM455 1298h221l141 -247l-180 -52z" />
<glyph unicode="&#xfa;" horiz-adv-x="999" d="M113 260l120 625h205l-121 -635q-2 -11 0 -17q14 -29 39 -45q4 -2 13 -2h161q14 0 63 29.5t75 52.5l118 617h205l-135 -703l-8 -182h-201l-8 51q-90 -59 -139 -59h-154q-89 0 -141 43q-20 17 -45.5 49t-34.5 51q-26 51 -12 125zM455 1055l235 243h254l-301 -299z" />
<glyph unicode="&#xfb;" horiz-adv-x="999" d="M113 260l120 625h205l-121 -635q-2 -11 0 -17q14 -29 39 -45q4 -2 13 -2h161q14 0 63 29.5t75 52.5l118 617h205l-135 -703l-8 -182h-201l-8 51q-90 -59 -139 -59h-154q-89 0 -141 43q-20 17 -45.5 49t-34.5 51q-26 51 -12 125zM338 1010l258 268h184l152 -268h-207 l-57 106l-99 -106h-231z" />
<glyph unicode="&#xfc;" horiz-adv-x="999" d="M113 260l120 625h205l-121 -635q-2 -11 0 -17q14 -29 39 -45q4 -2 13 -2h161q14 0 63 29.5t75 52.5l118 617h205l-135 -703l-8 -182h-201l-8 51q-90 -59 -139 -59h-154q-89 0 -141 43q-20 17 -45.5 49t-34.5 51q-26 51 -12 125zM381 1016l41 211h199l-41 -211h-199z M711 1016l41 211h198l-41 -211h-198z" />
<glyph unicode="&#xfd;" horiz-adv-x="880" d="M123 -332l182 332h-18l-137 885h212l82 -602l316 602h219l-649 -1217h-207zM414 1055l235 243h254l-301 -299z" />
<glyph unicode="&#xfe;" horiz-adv-x="1005" d="M20 -334l304 1563h202l-75 -381q73 47 133 47h149q87 0 141 -45q20 -17 45.5 -48t34.5 -50q26 -50 11 -125l-72 -369q-15 -79 -59 -125q-15 -18 -52.5 -50t-64.5 -50q-70 -43 -158 -43h-149q-55 0 -113 47l-72 -371h-205zM342 258q16 -25 46 -49.5t48 -24.5h150q4 0 12 4 q19 9 52.5 34t37.5 36l72 377v14q-5 11 -17.5 27t-21.5 22q-4 2 -10 2h-158q-16 0 -67 -33t-78 -59z" />
<glyph unicode="&#xff;" horiz-adv-x="874" d="M127 -332l182 332h-18l-137 885h213l82 -602l315 602h219l-649 -1217h-207zM326 1016l41 211h198l-41 -211h-198zM655 1016l41 211h199l-41 -211h-199z" />
<glyph unicode="&#x152;" horiz-adv-x="1734" d="M145 289l125 645q13 64 56 115q26 29 85.5 79t92.5 68q76 37 135 37h289q52 0 100 -25l4 17h742l-41 -205h-533l-59 -309h493l-39 -205h-493l-60 -301h533l-39 -205h-741l2 14q-57 -24 -111 -24h-289q-67 0 -121 37q-28 18 -67.5 67t-52.5 78q-25 51 -11 117zM356 276 q-3 -16 19 -41t43 -38q2 -2 14 -2h275l8 2q22 11 62.5 44.5t60.5 57.5q4 4 8 25l123 622q3 16 -19 42t-43 38q-2 2 -14 2h-275l-8 -2q-22 -11 -62.5 -44.5t-60.5 -57.5q-4 -4 -8 -25z" />
<glyph unicode="&#x153;" horiz-adv-x="1601" d="M121 258l72 369q15 79 59 125q14 18 52 48.5t67 49.5q73 45 155 45h193q87 0 141 -45l27 -29q8 7 22 16.5t17 12.5q73 45 157 45h189q87 0 141 -45q20 -17 45.5 -48t34.5 -50q26 -51 12 -125l-55 -283h-555l-16 -86q-3 -17 0 -25q8 -20 25.5 -34.5t29.5 -14.5h203 q13 0 43.5 21t44.5 35l8 8l184 -60q-20 -33 -73.5 -81.5t-86.5 -69.5q-78 -47 -155 -47h-193q-89 0 -141 43q-12 9 -29 26q-16 -14 -37 -26q-70 -43 -157 -43h-193q-87 0 -139 43q-20 17 -46.5 49t-35.5 51q-25 49 -10 125zM322 233q-3 -8 11 -23t29 -24q5 -2 13 -2h196 q5 0 13 4q16 7 48.5 30.5t39.5 35.5q0 1 1 2t1 2l71 377v14q-5 11 -17 27t-21 22q-4 2 -11 2h-196q-7 0 -11 -2q-22 -10 -49 -33t-41 -42l-6 -13zM930 526h350l23 111q2 10 0 12q-4 10 -18.5 26.5t-24.5 22.5q-4 2 -13 2h-192q-15 0 -49.5 -24.5t-53.5 -48.5q-4 -4 -4 -11z " />
<glyph unicode="&#x178;" horiz-adv-x="1064" d="M203 1225h223l182 -465l363 465h254l-541 -690l-102 -535h-215l102 535zM469 1335l41 211h199l-41 -211h-199zM799 1335l41 211h198l-41 -211h-198z" />
<glyph unicode="&#x2c6;" horiz-adv-x="868" d="M330 1010l258 268h184l152 -268h-207l-58 106l-98 -106h-231z" />
<glyph unicode="&#x2dc;" horiz-adv-x="946" d="M332 1198l172 43q7 -30 25.5 -43t35.5 -8l160 43q86 26 156.5 -18.5t93.5 -149.5l-160 -47q-7 30 -31 46t-41 11l-157 -43q-83 -26 -157.5 18.5t-96.5 147.5z" />
<glyph unicode="&#x2000;" horiz-adv-x="861" />
<glyph unicode="&#x2001;" horiz-adv-x="1722" />
<glyph unicode="&#x2002;" horiz-adv-x="861" />
<glyph unicode="&#x2003;" horiz-adv-x="1722" />
<glyph unicode="&#x2004;" horiz-adv-x="574" />
<glyph unicode="&#x2005;" horiz-adv-x="430" />
<glyph unicode="&#x2006;" horiz-adv-x="287" />
<glyph unicode="&#x2007;" horiz-adv-x="287" />
<glyph unicode="&#x2008;" horiz-adv-x="215" />
<glyph unicode="&#x2009;" horiz-adv-x="344" />
<glyph unicode="&#x200a;" horiz-adv-x="95" />
<glyph unicode="&#x2010;" horiz-adv-x="653" d="M129 401l37 193h455l-37 -193h-455z" />
<glyph unicode="&#x2011;" horiz-adv-x="653" d="M129 401l37 193h455l-37 -193h-455z" />
<glyph unicode="&#x2012;" horiz-adv-x="653" d="M129 401l37 193h455l-37 -193h-455z" />
<glyph unicode="&#x2013;" horiz-adv-x="952" d="M150 401l36 193h727l-36 -193h-727z" />
<glyph unicode="&#x2014;" horiz-adv-x="1110" d="M150 401l36 191h906l-37 -191h-905z" />
<glyph unicode="&#x2018;" horiz-adv-x="454" d="M152 922l258 389l186 -62l-215 -327h-229z" />
<glyph unicode="&#x2019;" horiz-adv-x="454" d="M154 983l215 328h229l-258 -389z" />
<glyph unicode="&#x201a;" horiz-adv-x="409" d="M-70 -174l256 389l187 -61l-215 -328h-228z" />
<glyph unicode="&#x201c;" horiz-adv-x="790" d="M162 971l215 327h229l-258 -389zM541 971l215 327h229l-258 -389z" />
<glyph unicode="&#x201d;" horiz-adv-x="778" d="M141 922l258 389l187 -62l-215 -327h-230zM520 922l258 389l187 -62l-215 -327h-230z" />
<glyph unicode="&#x201e;" horiz-adv-x="788" d="M-70 -174l256 389l187 -61l-215 -328h-228zM307 -174l258 389l187 -61l-215 -328h-230z" />
<glyph unicode="&#x2022;" horiz-adv-x="907" d="M227 489l6 33q12 67 59.5 115t123.5 92q54 33 125 33h51q69 0 113 -33q56 -43 83 -91.5t15 -115.5l-6 -33q-15 -72 -70 -127q-19 -18 -55 -44t-56 -37q-56 -33 -124 -33h-52q-68 0 -112 33q-17 12 -44 38.5t-40 45.5q-31 50 -17 124z" />
<glyph unicode="&#x2026;" horiz-adv-x="1394" d="M186 0l50 258h251l-49 -258h-252zM557 0l49 258h252l-49 -258h-252zM928 0l49 258h252l-49 -258h-252z" />
<glyph unicode="&#x202f;" horiz-adv-x="344" />
<glyph unicode="&#x2039;" horiz-adv-x="770" d="M172 498l373 331l211 -65l-310 -277l209 -264l-219 -57z" />
<glyph unicode="&#x203a;" horiz-adv-x="747" d="M143 231l310 277l-209 264l219 57l264 -331l-373 -332z" />
<glyph unicode="&#x205f;" horiz-adv-x="430" />
<glyph unicode="&#x20ac;" horiz-adv-x="1183" d="M131 389l35 184h67l15 74h-68l37 187h66l20 100q13 65 55 115q25 29 85.5 79t93.5 68q76 37 135 37h256q130 0 225 -170q16 -30 31 -72l-205 -57q-47 74 -74 92q-2 2 -8 2h-246l-8 -2q-22 -11 -62.5 -44.5t-60.5 -57.5q-4 -4 -8 -25l-12 -65h440l-37 -187h-440l-14 -74 h440l-35 -184h-442l-23 -113q-3 -16 19 -41t43 -38q2 -2 14 -2h242q6 0 10 2q21 9 48.5 33.5t44.5 44.5l17 20l209 -57q-27 -44 -57 -78q-161 -170 -293 -170h-256q-67 0 -121 37q-28 18 -68 67t-53 78q-24 49 -10 117l19 100h-66z" />
<glyph unicode="&#x2122;" horiz-adv-x="1286" d="M293 1049l35 176h635l55 -174l119 174h213l-119 -604h-187l54 264l-60 -78h-123l-24 82l-53 -268h-189l84 428h-102l-84 -428h-189l84 428h-149z" />
<glyph unicode="&#x25fc;" horiz-adv-x="880" d="M0 0v881h881v-881h-881z" />
<glyph unicode="&#xfb01;" horiz-adv-x="1138" d="M147 690l37 195h138l16 78q15 78 61 127q16 18 53.5 50t63.5 48q73 45 160 45h192l-39 -193h-178q-14 0 -22 -4q-23 -12 -52 -35t-34 -40q-4 -11 -17 -76h224l-37 -195h-224l-133 -690h-204l133 690h-138zM786 0l170 885h205l-170 -885h-205zM967 1010l43 219h219 l-43 -219h-219z" />
<glyph unicode="&#xfb02;" horiz-adv-x="1167" d="M147 690l37 195h138l16 78q15 78 61 127q16 18 53.5 50t63.5 48q73 45 160 45h192l-39 -193h-178q-14 0 -22 -4q-23 -12 -52 -35t-34 -40q-4 -11 -17 -76h224l-37 -195h-224l-133 -690h-204l133 690h-138zM811 0v152l209 1073h205l-205 -1051l-2 -174h-207z" />
</font>
</defs>
</svg>
